<svg width="117" height="131" viewBox="0 0 117 131" fill="none" xmlns="http://www.w3.org/2000/svg">
<path d="M23.1482 99.886L59.7146 78.7712C60.2796 78.4496 61.0649 77.05 60.9432 76.0011L57.3792 45.3734C57.272 44.4491 56.2434 43.9449 55.4669 44.4056L18.8975 65.5205C18.3325 65.8421 17.5386 67.2417 17.6603 68.2993L21.2242 98.9183C21.3285 99.8223 22.305 100.347 23.1482 99.886ZM21.7284 98.8603L18.1645 68.2413C18.0631 67.3749 18.77 66.1782 19.1525 65.9551L55.7219 44.8403C56.2347 44.5505 56.8316 44.9011 56.8896 45.4343L60.4448 76.062C60.5462 76.9167 59.8508 78.1164 59.4683 78.3366L22.9019 99.4514C22.4238 99.7209 21.7979 99.4427 21.7342 98.8574L21.7284 98.8603Z" fill="url(#paint0_linear_3295_1179)"/>
<path d="M97.4198 97.6114L69.5401 81.5123C67.8595 80.5445 65.3619 80.3649 63.3568 80.9473C64.5535 79.4666 65.2604 77.363 65.0489 75.5317L61.1025 41.5486C60.9519 40.2389 60.3376 39.2218 59.4307 38.7698C59.1757 38.6423 56.5332 37.5412 55.6755 37.179C54.8497 36.8371 53.8733 36.9472 52.9374 37.492L42.1036 43.7537L37.8356 41.2878L37.8646 35.5071C38.247 35.4781 38.6208 35.3854 38.9222 35.2144C39.3046 34.9942 39.5277 34.6697 39.5277 34.3278L39.5364 31.8822C39.9682 31.5895 40.2202 31.2071 40.2202 30.7956L40.2289 27.4112L42.6947 25.9827C47.3568 23.2937 51.1322 16.7509 51.1119 11.3932C51.1119 8.7767 50.205 6.81213 48.5853 5.85592C48.5766 5.85592 48.5766 5.84723 48.565 5.83563H48.5448V5.82694L44.0536 3.2191C42.6252 2.39328 40.7824 2.42226 38.8179 3.30892C38.7889 3.28864 38.7483 3.26836 38.7164 3.24807C38.6962 3.23938 38.6962 3.22779 38.6875 3.2191L34.1761 0.602563C32.5158 -0.365237 30.3195 -0.162405 28.0044 1.17629C27.4394 1.50951 26.8772 1.92097 26.3325 2.3759L23.945 0.996637C21.7892 -0.260923 18.9323 0.00855386 15.9102 1.75291C8.85769 5.81825 3.56685 16.438 5.14599 23.4705C2.0051 26.794 -0.00866447 31.4562 2.80291e-05 35.3912C0.00872053 38.028 0.915638 40.0013 2.55852 40.9488L7.06993 43.5653V43.574H7.09021C7.77402 43.9768 8.55055 44.168 9.38503 44.168C11.9146 44.168 13.8964 42.5077 15.2641 41.821C15.3017 41.989 15.0583 42.6584 15.9797 43.2698L15.9711 45.6864C15.9711 46.0399 16.1913 46.3615 16.594 46.5933C16.9069 46.7759 17.3097 46.8657 17.7125 46.8947L17.6922 52.4928C17.6835 52.5827 17.7327 52.6638 17.8139 52.7131L22.1949 55.2398L13.2126 60.4265C13.2126 60.4265 13.2126 60.4352 13.2039 60.4352C11.109 61.6522 9.64871 64.7149 9.94135 67.2619C9.94135 67.2706 9.95005 67.2706 9.95005 67.2706L13.8877 101.242C14.0587 102.633 14.7222 103.667 15.7103 104.09L19.3148 105.6C20.0594 105.849 20.5868 105.846 21.2271 105.641C21.0156 105.994 20.8939 106.356 20.8852 106.739V106.759L20.8765 110.978C20.8765 111.873 21.4618 112.711 22.5281 113.325L50.4079 129.436C52.5143 130.633 55.8957 130.633 57.9703 129.427L97.4372 106.49C98.4832 105.887 99.0569 105.061 99.0569 104.175L99.0656 99.9672V99.9585C99.0656 99.0631 98.4832 98.2257 97.414 97.6114H97.4198ZM41.6023 44.0376L32.4086 49.3547L28.0189 46.8164L28.0391 41.198C28.4129 41.1574 28.7751 41.0763 29.0649 40.9053C29.4589 40.6851 29.6704 40.3606 29.6704 40.0187L29.6791 37.5731C30.1109 37.2804 30.3629 36.8979 30.3629 36.4865L30.3716 33.1021L34.9816 30.445C35.0221 30.6304 34.77 31.2911 35.6972 31.8938L35.6885 34.3104C35.6799 34.6639 35.9001 34.9855 36.3028 35.2173C36.6042 35.3883 36.9779 35.4781 37.3604 35.51L37.3314 41.4298C37.3314 41.5196 37.3807 41.6008 37.4618 41.65L41.5994 44.0376H41.6023ZM26.2079 37.2312C25.8341 37.0109 25.6342 36.7473 25.6342 36.4662V35.8432L29.8733 33.3976L29.8646 36.4894C29.8646 36.7618 29.6646 37.0225 29.3111 37.2341C28.4564 37.7267 27.0656 37.7267 26.2108 37.2341L26.2079 37.2312ZM39.719 30.7956C39.719 31.068 39.519 31.3288 39.154 31.5403C37.824 32.3081 35.4886 31.7634 35.4886 30.7753V30.1523L39.7277 27.7067L39.719 30.7985V30.7956ZM28.2623 1.61672C30.418 0.367857 32.4318 0.167922 33.9298 1.03141L36.6679 2.63378H36.5984C34.3412 2.55844 32.0551 3.87106 30.3456 5.38361C29.2155 3.72908 27.9001 3.36108 26.7903 2.64537C27.2742 2.26289 27.7668 1.90069 28.2594 1.61962L28.2623 1.61672ZM2.8193 40.5113C1.33867 39.6565 0.524476 37.8339 0.512886 35.3854C0.504193 31.5895 2.44552 27.0896 5.46761 23.8558L9.53281 26.2203C7.66392 28.1877 5.8356 31.2998 5.05327 34.3365C4.84465 35.0725 4.89391 34.7508 4.71136 35.9562C4.68239 36.1388 4.63023 36.33 4.60995 36.5097C4.30282 39.0103 4.84465 41.0154 5.56613 42.0991L2.8164 40.5084L2.8193 40.5113ZM12.9982 42.557C7.4495 45.7617 3.78996 41.7833 5.44733 34.774C6.13114 32.0126 7.76533 28.7991 10.1094 26.3362C10.1297 26.3275 10.1413 26.2956 10.15 26.2753C10.1587 26.2666 10.1587 26.255 10.1703 26.2464C10.1789 26.2174 10.1789 26.1768 10.1789 26.1449V26.1247C10.1847 25.7769 9.14454 22.6359 11.054 17.1826C12.2825 13.6881 14.3977 10.295 16.9649 7.71908C18.1326 6.56003 19.3727 5.56326 20.6795 4.80988C24.1072 2.81923 28.0391 2.58452 30.0732 5.90807C30.1543 6.02977 30.3398 6.06455 30.4673 5.95733C32.5361 4.02753 35.7581 2.28027 38.2499 3.56102C38.2586 3.56102 38.2702 3.56971 38.2789 3.56971C38.2789 3.5784 38.2702 3.5784 38.2702 3.5784C38.2992 3.58709 38.3398 3.60738 38.3716 3.62766C39.6494 4.33178 40.4752 5.79217 40.6867 7.75675C40.6954 7.84657 40.7563 7.9277 40.849 7.95958C40.9301 8.00014 41.0315 7.97986 41.1011 7.91901C41.5937 7.52494 42.1065 7.16274 42.6426 6.85269C44.7983 5.61542 46.8005 5.40389 48.3014 6.26738C49.7907 7.12217 50.6165 8.94476 50.6165 11.3932C50.6368 16.5886 46.9714 22.9431 42.4513 25.5509L13.0011 42.557H12.9982ZM16.3506 42.9192C15.9884 42.6989 15.7769 42.4353 15.7769 42.1542V41.5312L20.0247 39.0856L20.016 42.1774C20.0073 42.4498 19.816 42.7105 19.451 42.9221C18.6165 43.406 17.1967 43.406 16.3506 42.9221V42.9192ZM18.2021 52.3538L18.2224 46.8773C18.5846 46.8483 18.9265 46.7556 19.2105 46.5962C19.6045 46.376 19.8247 46.0515 19.8247 45.7096L19.8334 43.264C20.2652 42.9713 20.5085 42.5888 20.5172 42.1774L20.5259 38.793L25.1272 36.1359V36.4691C25.1272 36.8922 25.3879 37.2833 25.8428 37.5876L25.8341 40.0042C25.8341 40.3577 26.0544 40.6793 26.4484 40.9111C26.7613 41.0937 27.1438 41.1719 27.535 41.2038L27.5147 46.9729C27.5147 47.0627 27.564 47.1439 27.6364 47.1844L31.9044 49.6503L22.7019 54.9558L18.2021 52.3567V52.3538ZM53.1895 37.9353C53.995 37.4717 54.8092 37.3703 55.4843 37.6426L57.669 38.5583C57.4314 38.6104 56.9156 38.7959 56.5506 39.0016L16.9359 61.8782L13.9167 60.609L53.1923 37.9353H53.1895ZM15.9189 103.633C15.0844 103.279 14.5397 102.404 14.3977 101.187L10.5006 67.6386L13.5719 68.9165C17.8284 104.855 17.272 103.12 18.0833 104.519C18.092 104.519 18.092 104.54 18.1036 104.548L15.9189 103.633ZM19.451 105.102C18.5382 104.603 18.2137 103.873 18.0602 102.966C17.9645 102.543 15.2467 78.9538 14.0529 68.7136C13.7805 66.3376 15.1395 63.4979 17.0837 62.3708L56.7939 39.4449C58.828 38.3352 60.355 39.4565 60.5984 41.6094L64.5448 75.581C64.7853 77.6354 63.8001 80.0317 62.2789 81.3617C62.1775 81.4109 62.0674 81.4515 61.9776 81.5123L22.6701 104.357C22.2152 104.545 20.8649 105.748 19.4481 105.102H19.451ZM98.5585 104.177C98.5585 104.882 98.0746 105.548 97.188 106.061L57.7211 128.998C55.7885 130.117 52.6273 130.125 50.6628 129.007L22.7831 112.896C21.8762 112.372 21.3836 111.688 21.3836 110.984V108.156C21.682 108.509 22.0732 108.854 22.5426 109.124L50.4223 125.223C52.5172 126.431 55.9102 126.431 57.9848 125.223L97.4517 102.285C97.782 102.1 98.1413 101.833 98.5701 101.349L98.5614 104.177H98.5585ZM97.1996 101.851L57.7414 124.776C55.7972 125.904 52.636 125.904 50.6831 124.776L22.7947 108.677C21.8877 108.164 21.3952 107.478 21.3952 106.774C21.3952 105.513 22.954 104.8 23.0757 104.699L61.7776 82.3555C62.0587 82.1933 62.3224 82.002 62.5629 81.7818C64.6838 80.7677 67.5234 80.927 69.288 81.9528L97.1677 98.0519C98.996 99.0892 99.0598 100.75 97.1967 101.848L97.1996 101.851Z" fill="url(#paint1_linear_3295_1179)"/>
<path d="M79.3973 91.9843L67.2684 84.9808C66.4281 84.4969 64.6433 84.5143 63.8523 84.9721L28.4651 105.539C27.6103 106.035 27.6103 107.269 28.468 107.765L40.6027 114.771C41.4343 115.249 43.2278 115.232 44.0189 114.771L79.4002 94.2067C80.2579 93.7084 80.2492 92.474 79.3973 91.9814V91.9843ZM43.7668 114.336C43.138 114.701 41.5299 114.722 40.8548 114.336L28.7201 107.33C28.1985 107.029 28.1985 106.278 28.7201 105.977L64.1072 85.4096C64.7389 85.0416 66.3383 85.0271 67.0192 85.4212L79.1482 92.4247C79.6697 92.7261 79.6697 93.4765 79.1482 93.7779L43.7668 114.342V114.336Z" fill="url(#paint2_linear_3295_1179)"/>
<path d="M83.4249 105.154L75.4799 100.561C74.9931 100.289 74.0399 100.3 73.6081 100.561L55.4147 111.135C54.9077 111.43 54.8961 112.186 55.4263 112.485L63.3713 117.078C63.8696 117.359 64.8229 117.33 65.2431 117.078L83.4249 106.504C83.9493 106.212 83.9493 105.461 83.4249 105.154Z" fill="url(#paint3_linear_3295_1179)"/>
<path d="M26.2079 111.92C26.1065 111.862 24.1072 110.709 24.2347 110.781C23.7132 110.48 23.1771 110.735 23.1771 111.375C23.1771 111.9 23.519 112.494 23.974 112.766C24.0754 112.824 26.0746 113.977 25.9472 113.905C26.46 114.197 26.9932 113.957 26.9932 113.302C27.0134 112.789 26.6599 112.175 26.2079 111.923V111.92Z" fill="url(#paint4_linear_3295_1179)"/>
<path d="M30.3456 114.316L30.0123 114.134L28.3724 113.177C27.8218 112.862 27.3148 113.157 27.3148 113.771C27.3148 114.296 27.6567 114.89 28.1116 115.151C28.213 115.209 30.2123 116.362 30.0848 116.289C30.5397 116.582 31.1308 116.379 31.1308 115.695C31.1511 115.171 30.7976 114.568 30.3456 114.316Z" fill="url(#paint5_linear_3295_1179)"/>
<path d="M32.6201 115.585C32.0464 115.255 31.5538 115.562 31.5538 116.179C31.5161 116.701 31.9305 117.361 32.368 117.619C32.8983 117.938 33.4343 117.654 33.4343 117.005C33.4343 116.446 33.0547 115.832 32.6201 115.585Z" fill="url(#paint6_linear_3295_1179)"/>
<path d="M116.903 67.2446C116.903 67.2127 116.923 60.1599 116.923 60.1251C116.914 59.5311 116.532 58.9777 115.825 58.5749L99.364 49.0708C98.0138 48.2942 95.8291 48.2942 94.4904 49.0708L78.1282 58.5749C77.4531 58.969 77.0706 59.5108 77.0706 60.0962C77.0591 60.1049 77.0591 60.1164 77.0591 60.1251L77.0504 67.2127C77.0301 67.7864 77.4126 68.3398 78.0674 68.7426C77.4328 69.1367 77.0706 69.6698 77.062 70.232V70.2523L77.0533 77.3398C77.033 77.9338 77.427 78.5075 78.1311 78.9103L94.6034 88.4144C95.9595 89.2055 98.1674 89.1823 99.4654 88.4144H99.477L115.839 78.9103C116.523 78.5075 116.906 77.9628 116.906 77.3688L116.926 70.2696C116.891 70.1682 117.007 69.4351 115.888 68.7397C116.543 68.3456 116.906 67.8125 116.906 67.2388L116.903 67.2446ZM94.4817 87.7654L78.3832 78.4815C77.8501 78.1685 77.5487 77.7658 77.5574 77.3543V71.3736C78.0819 71.8981 82.4194 74.2162 94.4933 81.2516L94.4846 87.7654H94.4817ZM94.4817 77.6354L78.3832 68.3514C77.8501 68.0385 77.5487 67.627 77.5574 67.2243V61.232C77.9602 61.6348 76.92 60.9741 94.4933 71.1187L94.4846 77.6325L94.4817 77.6354ZM99.0917 88.0551C97.924 88.6578 96.1507 88.6578 94.983 88.0551L94.9917 81.5095C95.0207 81.5181 95.041 81.5182 95.0728 81.5297C96.142 81.9818 97.811 82.0455 99.0308 81.5297C99.0598 81.5297 99.0801 81.521 99.1119 81.5095L99.0917 88.0551ZM99.0917 77.928C97.924 78.5307 96.1507 78.5307 94.983 77.928L94.9917 71.3823C95.012 71.391 95.041 71.391 95.0612 71.4026C96.3361 71.9416 98.2079 71.8315 99.109 71.3823L99.0888 77.928H99.0917ZM99.2336 70.7593C98.037 71.4548 96.0812 71.4548 94.8729 70.7593C72.313 57.7346 80.0956 62.2259 78.4122 61.2552C77.2938 60.6119 77.2822 59.6586 78.3919 59.0096L94.7425 49.5054C95.9855 48.8013 97.8921 48.8158 99.1119 49.5054L115.573 59.0212C116.723 59.6818 116.645 60.5946 115.642 61.2175C115.541 61.319 115.775 61.148 99.2307 70.7622L99.2336 70.7593ZM116.419 71.3823L116.398 77.3746C116.398 77.7773 116.106 78.1714 115.573 78.4815L99.5958 87.7654L99.6161 81.2516C115.523 71.9155 115.888 71.9155 116.419 71.3852V71.3823ZM115.573 68.3514L99.5958 77.6354L99.6161 71.1215C116.63 61.1915 115.92 61.7362 116.369 61.2842C116.39 61.2755 116.41 61.2639 116.419 61.2552L116.398 67.2475C116.398 67.6502 116.106 68.0443 115.573 68.3543V68.3514Z" fill="url(#paint7_linear_3295_1179)"/>
<path d="M107.61 59.1689L98.3789 53.8315C97.5821 53.3679 96.3361 53.3679 95.5393 53.8315L86.3658 59.1573C85.4821 59.6818 85.4966 60.5887 86.3745 61.1016L95.606 66.4274C96.4318 66.9026 97.7009 66.865 98.4455 66.4274L107.619 61.1016C108.517 60.5656 108.474 59.6499 107.61 59.1689Z" fill="url(#paint8_linear_3295_1179)"/>
<path d="M78.8063 63.9963L78.8005 66.6824C78.8005 66.8215 78.9135 66.9345 79.0525 66.9345C79.1916 66.9345 79.3046 66.8215 79.3046 66.6824L79.3104 63.9963C79.3104 63.6602 78.8063 63.6631 78.8063 63.9963Z" fill="url(#paint9_linear_3295_1179)"/>
<path d="M80.3709 64.5034C80.2318 64.5034 80.1188 64.6164 80.1188 64.7555V67.4416C80.1159 67.5807 80.226 67.6937 80.3651 67.6937C80.5042 67.6937 80.6172 67.5807 80.6172 67.4416V64.7555C80.6201 64.6164 80.51 64.5034 80.3709 64.5034Z" fill="url(#paint10_linear_3295_1179)"/>
<path d="M81.6835 65.2597C81.5444 65.2597 81.4314 65.3727 81.4314 65.5118V68.1979C81.4285 68.3369 81.5386 68.45 81.6777 68.45C81.8168 68.45 81.9298 68.3369 81.9298 68.1979V65.5118C81.9327 65.3727 81.8226 65.2597 81.6835 65.2597Z" fill="url(#paint11_linear_3295_1179)"/>
<path d="M87.0149 69.0527C86.586 68.8035 86.2297 69.0005 86.2297 69.4931C86.2297 69.9886 86.5802 70.5971 87.012 70.8463C87.4408 71.0955 87.7914 70.8897 87.7914 70.3942C87.7914 69.8988 87.4466 69.299 87.0178 69.0527H87.0149Z" fill="url(#paint12_linear_3295_1179)"/>
<path d="M89.4546 70.4609C89.0257 70.2117 88.6693 70.4087 88.6693 70.9013C88.6693 71.3968 89.02 72.0053 89.4517 72.2545C89.8805 72.5037 90.2311 72.298 90.2311 71.8025C90.2311 71.307 89.8863 70.7072 89.4575 70.4609H89.4546Z" fill="url(#paint13_linear_3295_1179)"/>
<path d="M91.8885 71.8662C91.4596 71.617 91.109 71.817 91.109 72.3096C91.109 72.805 91.4538 73.4107 91.8827 73.6598C92.3173 73.9119 92.6679 73.7062 92.6679 73.2107C92.6679 72.7152 92.3231 72.1154 91.8856 71.8633L91.8885 71.8662Z" fill="url(#paint14_linear_3295_1179)"/>
<path d="M79.0525 77.2905C79.1916 77.2905 79.3046 77.1775 79.3046 77.0385L79.3104 74.3524C79.3104 74.2133 79.1974 74.1003 79.0583 74.1003C78.9193 74.1003 78.8063 74.2133 78.8063 74.3524L78.8005 77.0385C78.8005 77.1775 78.9135 77.2905 79.0525 77.2905Z" fill="url(#paint15_linear_3295_1179)"/>
<path d="M80.368 78.0497C80.5071 78.0497 80.6201 77.9367 80.6201 77.7976V75.1115C80.623 74.9725 80.5129 74.8594 80.3738 74.8594C80.2347 74.8594 80.1217 74.9725 80.1217 75.1115V77.7976C80.1188 77.9367 80.2289 78.0497 80.368 78.0497Z" fill="url(#paint16_linear_3295_1179)"/>
<path d="M81.6806 78.806C81.8197 78.806 81.9327 78.693 81.9327 78.5539V75.8678C81.9356 75.7287 81.8255 75.6157 81.6864 75.6157C81.5473 75.6157 81.4343 75.7287 81.4343 75.8678V78.5539C81.4314 78.693 81.5415 78.806 81.6806 78.806Z" fill="url(#paint17_linear_3295_1179)"/>
<path d="M87.012 81.2052C87.4408 81.4544 87.7914 81.2487 87.7914 80.7532C87.7914 80.2577 87.4466 79.6579 87.0178 79.4116C86.5889 79.1624 86.2325 79.3594 86.2325 79.852C86.2325 80.3475 86.5831 80.956 87.0149 81.2052H87.012Z" fill="url(#paint18_linear_3295_1179)"/>
<path d="M89.4488 82.6134C89.8776 82.8626 90.2282 82.6569 90.2282 82.1614C90.2282 81.6659 89.8834 81.0661 89.4546 80.8198C89.0257 80.5706 88.6693 80.7677 88.6693 81.2602C88.6693 81.7557 89.02 82.3642 89.4517 82.6134H89.4488Z" fill="url(#paint19_linear_3295_1179)"/>
<path d="M91.8827 84.0159C92.3173 84.268 92.6679 84.0622 92.6679 83.5667C92.6679 83.0713 92.3231 82.4715 91.8856 82.2194C91.4567 81.9702 91.1061 82.1701 91.1061 82.6627C91.1061 83.1582 91.451 83.7638 91.8798 84.013L91.8827 84.0159Z" fill="url(#paint20_linear_3295_1179)"/>
<path d="M24.7679 92.6507C24.9939 92.7637 25.2373 92.8188 25.4893 92.8188C25.837 92.8188 26.2021 92.7145 26.5643 92.5059L54.954 76.1141C56.2463 75.3694 57.1127 73.5584 56.933 71.9908C56.8403 71.1824 56.4607 70.5565 55.8957 70.2696C55.3626 70.0031 54.7222 70.0552 54.0935 70.4174L25.7038 86.8092C24.4375 87.5394 23.5538 89.388 23.7306 90.9296C23.8233 91.738 24.2029 92.3668 24.7708 92.6507H24.7679ZM25.9529 87.2438L54.3427 70.8521C54.6266 70.6869 54.9106 70.6058 55.1713 70.6058C55.3481 70.6058 55.5161 70.6434 55.6668 70.7188C56.0841 70.9303 56.3564 71.3997 56.4318 72.0459C56.5911 73.4049 55.8146 75.0333 54.7019 75.6766L26.3122 92.0683C25.8399 92.3436 25.3705 92.387 24.9939 92.1987C24.5824 91.9901 24.3043 91.5062 24.2289 90.8687C24.0696 89.5097 24.8432 87.8813 25.9529 87.2409V87.2438Z" fill="url(#paint21_linear_3295_1179)"/>
<path d="M39.2409 84.0564L38.8179 80.417L37.7081 81.0545L38.1311 84.6968L39.2409 84.0564Z" fill="url(#paint22_linear_3295_1179)"/>
<path d="M37.6473 84.975L37.2242 81.3356L36.1232 81.9731L36.5433 85.6124L37.6473 84.975Z" fill="url(#paint23_linear_3295_1179)"/>
<path d="M36.0623 85.8906L35.6393 82.2512L34.5295 82.8916L34.9526 86.531L36.0623 85.8906Z" fill="url(#paint24_linear_3295_1179)"/>
<path d="M34.4716 86.8092L34.0486 83.1698L32.9446 83.8072L33.3677 87.4466L34.4716 86.8092Z" fill="url(#paint25_linear_3295_1179)"/>
<path d="M32.878 87.7277L32.4549 84.0883L31.3539 84.7258L31.7769 88.3652L32.878 87.7277Z" fill="url(#paint26_linear_3295_1179)"/>
<path d="M31.293 88.6462L30.87 85.004L29.7603 85.6443L30.1833 89.2837L31.293 88.6462Z" fill="url(#paint27_linear_3295_1179)"/>
<path d="M29.7023 89.5648L29.2793 85.9225L28.1753 86.56L28.5984 90.2023L29.7023 89.5648Z" fill="url(#paint28_linear_3295_1179)"/>
<path d="M28.1145 90.4804L27.6914 86.8381L26.5846 87.4785L27.0047 91.1208L28.1145 90.4804Z" fill="url(#paint29_linear_3295_1179)"/>
<path d="M26.5933 91.3584L26.1703 87.7161C25.7588 87.9537 25.4024 88.3797 25.1706 88.8665C24.9417 89.3417 24.8258 89.9038 24.8838 90.4051C24.9997 91.4019 25.7617 91.8365 26.5904 91.3584H26.5933Z" fill="url(#paint30_linear_3295_1179)"/>
<path d="M30.6788 73.1846C30.7396 73.2339 30.8092 73.2455 30.8787 73.2252L32.2898 72.8311C32.3593 72.8224 32.5419 72.7616 32.7215 73.0629C32.8432 73.2831 32.8635 73.5961 32.7621 73.9293L32.2086 75.7925C32.1797 75.9142 32.2289 76.033 32.3303 76.0851L34.263 77.1717C34.3035 77.192 34.3441 77.2007 34.3847 77.2007C34.4658 77.2007 34.5469 77.1717 34.5962 77.0993L35.6828 75.5288C35.7842 75.3781 35.9146 75.2564 36.0449 75.1753C36.1464 75.1144 36.2449 75.0855 36.3463 75.0739C36.5491 75.0739 36.6795 75.155 36.749 75.3549L37.2619 76.824C37.2909 76.8936 37.343 76.9457 37.4126 76.9747C37.4821 76.995 37.5632 76.995 37.6241 76.9544L40.0319 75.5636C40.1014 75.523 40.1536 75.4419 40.1623 75.3636L40.284 73.5323C40.3043 73.2107 40.4549 72.8572 40.7157 72.5559C40.8055 72.4457 40.9156 72.3646 41.0286 72.3038C41.1387 72.2342 41.2488 72.2023 41.3416 72.2139L42.6396 72.4139C42.7498 72.4226 42.8512 72.3733 42.9004 72.2719L44.3608 69.2207C44.41 69.1309 44.3897 69.0295 44.3318 68.9483L43.4249 67.9226C43.2945 67.7603 43.2539 67.459 43.3235 67.0968C43.393 66.7346 43.564 66.3926 43.7958 66.1898L45.1054 65.0018C45.1663 64.9525 45.1952 64.8714 45.1866 64.7903L44.8533 61.8695C44.8418 61.7884 44.8041 61.7275 44.7432 61.6869C44.6824 61.6464 44.6013 61.6261 44.5317 61.6464L43.1206 62.0404C43.0598 62.0607 42.8599 62.1216 42.6976 61.8202C42.5672 61.6 42.5469 61.2755 42.6368 60.9538L43.2018 59.082C43.2423 58.9719 43.1931 58.8502 43.0801 58.7893L41.1474 57.7027C41.0257 57.6332 40.8867 57.6622 40.8142 57.7723L39.7277 59.3544C39.6176 59.505 39.4959 59.6267 39.3655 59.7079C39.2641 59.7571 39.1655 59.7977 39.0641 59.8093C38.8526 59.818 38.7222 59.7195 38.6498 59.5282L38.1456 58.0476C38.1166 57.978 38.0645 57.9258 37.995 57.8969C37.9254 57.8766 37.8443 57.8766 37.7834 57.9172L35.3756 59.308C35.2945 59.3486 35.2539 59.4181 35.2452 59.5108L35.1148 61.3537C35.0946 61.6869 34.9439 62.0289 34.6918 62.3215C34.5904 62.4316 34.4803 62.5243 34.3789 62.5823C34.2572 62.6518 34.1471 62.6837 34.0573 62.6721L32.7679 62.4606C32.6578 62.4403 32.5448 62.5012 32.5071 62.6026L31.0467 65.6538C31.0062 65.7436 31.0178 65.845 31.0873 65.9261L31.9739 66.9722C32.1159 67.1228 32.1565 67.4155 32.0841 67.7777C32.0145 68.1602 31.8436 68.4934 31.6118 68.6933L30.3021 69.8727C30.2412 69.9219 30.2123 70.0031 30.221 70.0842L30.5629 73.0137C30.5716 73.0832 30.6121 73.1441 30.673 73.1846H30.6788ZM37.3227 63.2372C37.8269 62.9445 38.3195 62.7938 38.7918 62.7938C39.1134 62.7938 39.4263 62.8634 39.6987 63.0054C40.4636 63.3878 40.9475 64.2339 41.0866 65.3814C41.359 67.7284 40.0087 70.5362 38.0964 71.6431C37.2416 72.1357 36.3955 72.2168 35.7001 71.8633C34.9439 71.4895 34.4513 70.6463 34.3209 69.5076C34.0486 67.1605 35.3988 64.3411 37.3227 63.2343V63.2372Z" fill="url(#paint31_linear_3295_1179)"/>
<path d="M17.9703 24.1572C16.2115 25.1742 14.786 27.6372 14.7918 29.6597C14.7976 31.6823 16.2289 32.4907 17.9906 31.4736C19.7494 30.4566 21.1663 28.0023 21.1605 25.9798C21.1547 23.9572 19.7291 23.1372 17.9674 24.1543L17.9703 24.1572Z" fill="url(#paint32_linear_3295_1179)"/>
<path d="M27.28 18.7821C25.5212 19.7992 24.0956 22.2621 24.1014 24.2847C24.1072 26.3072 25.5386 27.1156 27.3003 26.0986C29.0591 25.0815 30.4846 22.6244 30.4788 20.6018C30.473 18.5793 29.0417 17.7622 27.28 18.7792V18.7821Z" fill="url(#paint33_linear_3295_1179)"/>
<path d="M36.5897 13.4071C34.8309 14.4241 33.4053 16.8871 33.4111 18.9096C33.4169 20.9321 34.8483 21.7406 36.61 20.7235C38.3687 19.7065 39.7943 17.2493 39.7885 15.2268C39.7827 13.2042 38.3514 12.3871 36.5897 13.4042V13.4071Z" fill="url(#paint34_linear_3295_1179)"/>
<defs>
<linearGradient id="paint0_linear_3295_1179" x1="0" y1="65.1661" x2="116.926" y2="65.1661" gradientUnits="userSpaceOnUse">
<stop stop-color="#5B2BE0"/>
<stop offset="1" stop-color="#6B80F7"/>
</linearGradient>
<linearGradient id="paint1_linear_3295_1179" x1="0" y1="65.1661" x2="116.926" y2="65.1661" gradientUnits="userSpaceOnUse">
<stop stop-color="#5B2BE0"/>
<stop offset="1" stop-color="#6B80F7"/>
</linearGradient>
<linearGradient id="paint2_linear_3295_1179" x1="0" y1="65.1661" x2="116.926" y2="65.1661" gradientUnits="userSpaceOnUse">
<stop stop-color="#5B2BE0"/>
<stop offset="1" stop-color="#6B80F7"/>
</linearGradient>
<linearGradient id="paint3_linear_3295_1179" x1="0" y1="65.1661" x2="116.926" y2="65.1661" gradientUnits="userSpaceOnUse">
<stop stop-color="#5B2BE0"/>
<stop offset="1" stop-color="#6B80F7"/>
</linearGradient>
<linearGradient id="paint4_linear_3295_1179" x1="0" y1="65.1661" x2="116.926" y2="65.1661" gradientUnits="userSpaceOnUse">
<stop stop-color="#5B2BE0"/>
<stop offset="1" stop-color="#6B80F7"/>
</linearGradient>
<linearGradient id="paint5_linear_3295_1179" x1="0" y1="65.1661" x2="116.926" y2="65.1661" gradientUnits="userSpaceOnUse">
<stop stop-color="#5B2BE0"/>
<stop offset="1" stop-color="#6B80F7"/>
</linearGradient>
<linearGradient id="paint6_linear_3295_1179" x1="0" y1="65.1661" x2="116.926" y2="65.1661" gradientUnits="userSpaceOnUse">
<stop stop-color="#5B2BE0"/>
<stop offset="1" stop-color="#6B80F7"/>
</linearGradient>
<linearGradient id="paint7_linear_3295_1179" x1="0" y1="65.1661" x2="116.926" y2="65.1661" gradientUnits="userSpaceOnUse">
<stop stop-color="#5B2BE0"/>
<stop offset="1" stop-color="#6B80F7"/>
</linearGradient>
<linearGradient id="paint8_linear_3295_1179" x1="0" y1="65.1661" x2="116.926" y2="65.1661" gradientUnits="userSpaceOnUse">
<stop stop-color="#5B2BE0"/>
<stop offset="1" stop-color="#6B80F7"/>
</linearGradient>
<linearGradient id="paint9_linear_3295_1179" x1="0" y1="65.1661" x2="116.926" y2="65.1661" gradientUnits="userSpaceOnUse">
<stop stop-color="#5B2BE0"/>
<stop offset="1" stop-color="#6B80F7"/>
</linearGradient>
<linearGradient id="paint10_linear_3295_1179" x1="0" y1="65.1661" x2="116.926" y2="65.1661" gradientUnits="userSpaceOnUse">
<stop stop-color="#5B2BE0"/>
<stop offset="1" stop-color="#6B80F7"/>
</linearGradient>
<linearGradient id="paint11_linear_3295_1179" x1="0" y1="65.1661" x2="116.926" y2="65.1661" gradientUnits="userSpaceOnUse">
<stop stop-color="#5B2BE0"/>
<stop offset="1" stop-color="#6B80F7"/>
</linearGradient>
<linearGradient id="paint12_linear_3295_1179" x1="0" y1="65.1661" x2="116.926" y2="65.1661" gradientUnits="userSpaceOnUse">
<stop stop-color="#5B2BE0"/>
<stop offset="1" stop-color="#6B80F7"/>
</linearGradient>
<linearGradient id="paint13_linear_3295_1179" x1="0" y1="65.1661" x2="116.926" y2="65.1661" gradientUnits="userSpaceOnUse">
<stop stop-color="#5B2BE0"/>
<stop offset="1" stop-color="#6B80F7"/>
</linearGradient>
<linearGradient id="paint14_linear_3295_1179" x1="0" y1="65.1661" x2="116.926" y2="65.1661" gradientUnits="userSpaceOnUse">
<stop stop-color="#5B2BE0"/>
<stop offset="1" stop-color="#6B80F7"/>
</linearGradient>
<linearGradient id="paint15_linear_3295_1179" x1="0" y1="65.1661" x2="116.926" y2="65.1661" gradientUnits="userSpaceOnUse">
<stop stop-color="#5B2BE0"/>
<stop offset="1" stop-color="#6B80F7"/>
</linearGradient>
<linearGradient id="paint16_linear_3295_1179" x1="0" y1="65.1661" x2="116.926" y2="65.1661" gradientUnits="userSpaceOnUse">
<stop stop-color="#5B2BE0"/>
<stop offset="1" stop-color="#6B80F7"/>
</linearGradient>
<linearGradient id="paint17_linear_3295_1179" x1="0" y1="65.1661" x2="116.926" y2="65.1661" gradientUnits="userSpaceOnUse">
<stop stop-color="#5B2BE0"/>
<stop offset="1" stop-color="#6B80F7"/>
</linearGradient>
<linearGradient id="paint18_linear_3295_1179" x1="0" y1="65.1661" x2="116.926" y2="65.1661" gradientUnits="userSpaceOnUse">
<stop stop-color="#5B2BE0"/>
<stop offset="1" stop-color="#6B80F7"/>
</linearGradient>
<linearGradient id="paint19_linear_3295_1179" x1="0" y1="65.1661" x2="116.926" y2="65.1661" gradientUnits="userSpaceOnUse">
<stop stop-color="#5B2BE0"/>
<stop offset="1" stop-color="#6B80F7"/>
</linearGradient>
<linearGradient id="paint20_linear_3295_1179" x1="0" y1="65.1661" x2="116.926" y2="65.1661" gradientUnits="userSpaceOnUse">
<stop stop-color="#5B2BE0"/>
<stop offset="1" stop-color="#6B80F7"/>
</linearGradient>
<linearGradient id="paint21_linear_3295_1179" x1="0" y1="65.1661" x2="116.926" y2="65.1661" gradientUnits="userSpaceOnUse">
<stop stop-color="#5B2BE0"/>
<stop offset="1" stop-color="#6B80F7"/>
</linearGradient>
<linearGradient id="paint22_linear_3295_1179" x1="0" y1="65.1661" x2="116.926" y2="65.1661" gradientUnits="userSpaceOnUse">
<stop stop-color="#5B2BE0"/>
<stop offset="1" stop-color="#6B80F7"/>
</linearGradient>
<linearGradient id="paint23_linear_3295_1179" x1="0" y1="65.1661" x2="116.926" y2="65.1661" gradientUnits="userSpaceOnUse">
<stop stop-color="#5B2BE0"/>
<stop offset="1" stop-color="#6B80F7"/>
</linearGradient>
<linearGradient id="paint24_linear_3295_1179" x1="0" y1="65.1661" x2="116.926" y2="65.1661" gradientUnits="userSpaceOnUse">
<stop stop-color="#5B2BE0"/>
<stop offset="1" stop-color="#6B80F7"/>
</linearGradient>
<linearGradient id="paint25_linear_3295_1179" x1="0" y1="65.1661" x2="116.926" y2="65.1661" gradientUnits="userSpaceOnUse">
<stop stop-color="#5B2BE0"/>
<stop offset="1" stop-color="#6B80F7"/>
</linearGradient>
<linearGradient id="paint26_linear_3295_1179" x1="0" y1="65.1661" x2="116.926" y2="65.1661" gradientUnits="userSpaceOnUse">
<stop stop-color="#5B2BE0"/>
<stop offset="1" stop-color="#6B80F7"/>
</linearGradient>
<linearGradient id="paint27_linear_3295_1179" x1="0" y1="65.1661" x2="116.926" y2="65.1661" gradientUnits="userSpaceOnUse">
<stop stop-color="#5B2BE0"/>
<stop offset="1" stop-color="#6B80F7"/>
</linearGradient>
<linearGradient id="paint28_linear_3295_1179" x1="0" y1="65.1661" x2="116.926" y2="65.1661" gradientUnits="userSpaceOnUse">
<stop stop-color="#5B2BE0"/>
<stop offset="1" stop-color="#6B80F7"/>
</linearGradient>
<linearGradient id="paint29_linear_3295_1179" x1="0" y1="65.1661" x2="116.926" y2="65.1661" gradientUnits="userSpaceOnUse">
<stop stop-color="#5B2BE0"/>
<stop offset="1" stop-color="#6B80F7"/>
</linearGradient>
<linearGradient id="paint30_linear_3295_1179" x1="0" y1="65.1661" x2="116.926" y2="65.1661" gradientUnits="userSpaceOnUse">
<stop stop-color="#5B2BE0"/>
<stop offset="1" stop-color="#6B80F7"/>
</linearGradient>
<linearGradient id="paint31_linear_3295_1179" x1="0" y1="65.1661" x2="116.926" y2="65.1661" gradientUnits="userSpaceOnUse">
<stop stop-color="#5B2BE0"/>
<stop offset="1" stop-color="#6B80F7"/>
</linearGradient>
<linearGradient id="paint32_linear_3295_1179" x1="0" y1="65.1661" x2="116.926" y2="65.1661" gradientUnits="userSpaceOnUse">
<stop stop-color="#5B2BE0"/>
<stop offset="1" stop-color="#6B80F7"/>
</linearGradient>
<linearGradient id="paint33_linear_3295_1179" x1="0" y1="65.1661" x2="116.926" y2="65.1661" gradientUnits="userSpaceOnUse">
<stop stop-color="#5B2BE0"/>
<stop offset="1" stop-color="#6B80F7"/>
</linearGradient>
<linearGradient id="paint34_linear_3295_1179" x1="0" y1="65.1661" x2="116.926" y2="65.1661" gradientUnits="userSpaceOnUse">
<stop stop-color="#5B2BE0"/>
<stop offset="1" stop-color="#6B80F7"/>
</linearGradient>
</defs>
</svg>
