<svg width="169" height="178" viewBox="0 0 169 178" fill="none" xmlns="http://www.w3.org/2000/svg">
<path d="M169 102.503L168.963 86.2063V86.1457C168.963 83.1045 166.936 80.2689 163.251 78.1438C162.5 77.6959 161.674 77.2984 160.815 76.9381C153.114 73.7623 142.634 74.2573 135.891 78.1337C135.843 78.1707 135.806 78.2044 135.782 78.2549C135.745 78.292 135.735 78.3526 135.735 78.3997L135.749 83.8926C132.098 86.0278 130.084 88.8669 130.084 91.8945V91.9181L130.108 103.722C130.122 106.763 132.145 109.602 135.82 111.724C147.784 118.679 169 113.836 169 103.662L168.986 102.49L169 102.503ZM160.585 77.5039C161.421 77.8407 162.223 78.2414 162.95 78.6624C166.334 80.6191 168.239 83.1786 168.36 85.9066H149.612L136.659 78.3997C143.257 74.8501 153.212 74.4527 160.588 77.5073L160.585 77.5039ZM130.714 103.722L130.69 94.7538C131.698 97.0136 133.597 98.5594 135.637 99.8492L135.65 104.544C135.65 104.544 135.637 104.568 135.637 104.591L135.661 110.939C132.47 108.959 130.724 106.413 130.714 103.722ZM130.69 91.8911C130.69 89.0891 132.595 86.4353 136.04 84.4079L148.931 91.8541C131.461 101.897 137.129 98.6402 135.955 99.3138C133.126 97.5558 130.69 95.2387 130.69 91.8911ZM136.243 99.8459C137.572 99.0847 131.431 102.607 149.233 92.3862L149.246 96.5993L136.256 104.059L136.243 99.8459ZM164.49 103.251C158.599 107.939 145.28 109.249 136.571 104.578L149.608 97.0809H168.333C168.333 99.4451 166.391 101.924 164.49 103.251ZM149.852 96.4781L149.838 86.506H168.357L168.381 96.4781H149.848H149.852Z" fill="url(#paint0_linear_3345_5281)"/>
<path d="M123.496 88.9241L120.065 59.567L138.632 48.8978C140.208 47.9919 141.301 45.7119 141.081 43.8158L138.706 23.4642C138.574 22.2652 137.914 21.5108 137.322 21.3155C137.308 21.3155 137.308 21.302 137.298 21.302C137.285 21.2886 137.261 21.2785 137.237 21.265L133.722 19.7933C133.079 19.5272 132.338 19.6114 131.6 20.0357L116.475 28.728L115.274 18.5034C115.057 16.6073 114.208 15.1962 112.899 14.5429C112.838 14.5058 112.767 14.4957 112.706 14.4688C112.692 14.4688 112.692 14.4452 112.682 14.4452L105.093 11.2828C103.929 10.7878 102.534 10.946 101.164 11.7307L18.7716 59.0719V59.0854C15.7398 60.8232 13.6284 65.2181 14.0547 68.8756C14.0547 68.8756 14.0683 68.8891 14.0683 68.8992L22.2804 139.296C22.5105 141.277 23.458 142.762 24.8892 143.351C33.2605 146.83 32.4924 146.537 32.5905 146.537C33.8932 147.032 35.1993 146.746 36.387 146.055L118.773 98.7143C121.804 96.9765 123.926 92.5815 123.503 88.9241H123.496ZM135.505 22.0598C136.987 21.3222 137.934 22.0699 138.114 23.5315L140.479 43.8697C140.685 45.5603 139.714 47.5742 138.334 48.3589L106.328 66.7539C105.252 67.3702 104.247 67.0334 103.841 65.8614V65.8479C103.702 65.464 103.871 66.444 101.343 44.9305C101.151 43.2534 102.118 41.236 103.502 40.4412C106.774 38.562 91.6458 47.2509 135.508 22.0564L135.505 22.0598ZM97.1544 43.5127L99.5196 63.8508C99.6414 64.9117 100.149 65.6964 100.927 66.013L104.382 67.4611C104.382 67.4611 104.395 67.4611 104.395 67.4746C105.106 67.7103 105.664 67.8383 106.629 67.2927L113.335 63.4299L116.269 88.5503C116.499 90.4935 115.541 92.3761 113.843 93.3561L39.5338 136.053C38.116 136.885 36.2719 135.982 36.0892 134.325L28.8617 72.4017C28.838 72.2097 28.8245 72.0144 28.8245 71.8359C28.8245 70.0981 29.7584 68.4816 31.2878 67.5992L105.597 24.9056C105.962 24.7001 106.348 24.5924 106.751 24.5924C107.102 24.5924 107.464 24.6766 107.793 24.845C108.483 25.1952 108.957 25.8587 109.041 26.6299L109.745 32.5943L99.594 38.4239C98.0037 39.34 96.9142 41.6233 97.1578 43.5194L97.1544 43.5127ZM101.462 12.2595C102.687 11.559 103.851 11.4142 104.846 11.8385L110.571 14.2162C110.303 14.2633 110.026 14.3475 109.759 14.4452C109.698 14.4587 109.637 14.4822 109.576 14.5058C109.322 14.6035 109.078 14.7112 108.825 14.8561C108.801 14.8695 108.777 14.8796 108.754 14.8931L26.4965 62.1602L19.6073 59.2875L101.462 12.2595ZM25.116 142.795C23.9046 142.287 23.0891 140.984 22.8827 139.222L14.7213 69.3201C14.8465 69.3707 22.1011 72.4017 21.6578 72.2164L29.8565 142.445C30.0832 144.021 30.4723 144.533 30.5129 144.654C30.611 144.823 30.7058 144.991 30.8039 145.136C30.8174 145.15 30.8276 145.173 30.8411 145.183L25.116 142.792V142.795ZM36.0791 145.537C33.8255 146.844 31.5822 146.167 30.7058 143.557V143.543C30.3776 142.452 30.9968 146.577 22.9199 77.7801L22.2398 71.974V71.9605C21.9218 69.1517 23.2719 65.491 25.6472 63.4736C25.9619 63.1975 26.3036 62.955 26.6657 62.7496L109.051 15.4118C109.099 15.3882 109.16 15.3646 109.221 15.3377C109.474 15.2063 109.718 15.0851 109.972 14.9874C110.08 14.9504 110.188 14.9403 110.286 14.9133C110.479 14.8662 110.676 14.8157 110.868 14.7921C111 14.7786 111.146 14.7921 111.281 14.7921C111.427 14.7921 111.572 14.7786 111.704 14.8055C111.863 14.8291 112.019 14.8796 112.178 14.9268C112.323 14.9739 112.469 15.0009 112.614 15.0716C113.741 15.6374 114.469 16.8835 114.665 18.5707L115.89 29.0614L110.31 32.2609L109.644 26.5524C109.522 25.5758 108.94 24.7305 108.053 24.296C107.167 23.8616 106.138 23.8851 105.289 24.3802L30.9799 67.0738C29.0749 68.1717 28.009 70.2833 28.2526 72.469L35.4802 134.393C35.7373 136.467 38.0078 137.609 39.8349 136.578L114.144 93.8714C116.049 92.7735 117.128 90.6619 116.871 88.4762L113.91 63.1032L119.49 59.8937L122.887 88.9982C123.287 92.4401 121.297 96.5656 118.461 98.1956L36.0757 145.537H36.0791Z" fill="url(#paint1_linear_3345_5281)"/>
<path d="M140.804 123.639L119.409 111.34C117.02 109.976 113.176 109.976 110.811 111.34L58.77 141.431C57.5823 142.132 56.9157 143.061 56.9157 144.075C56.9157 144.089 56.9293 144.099 56.9293 144.112L56.8921 150.016C56.8921 151.043 57.5722 151.983 58.7971 152.673L80.192 164.972V164.986C82.5809 166.343 86.4146 166.333 88.7527 164.986C88.7527 164.986 88.7606 164.981 88.7764 164.972L140.817 134.881C142.005 134.181 142.661 133.251 142.661 132.237C142.661 132.035 142.689 125.923 142.685 126.3C142.685 125.273 142.019 124.333 140.804 123.643V123.639ZM80.0296 164.184L59.0982 152.151C58.0662 151.572 57.4977 150.811 57.4977 150.016L57.5214 145.682C57.9342 146.15 58.3843 146.5 58.8072 146.742L71.699 154.142L80.0432 158.947L80.0296 164.188V164.184ZM142.052 132.234C142.052 133.019 141.508 133.766 140.513 134.359L88.9321 164.188L88.9456 158.947L140.828 128.927C140.953 128.876 141.799 128.297 142.066 127.9L142.052 132.234ZM140.523 128.408L88.4821 158.513C86.2387 159.786 82.7298 159.779 80.5033 158.513L71.6753 153.444L59.1117 146.214C58.2861 145.746 57.535 145.028 57.535 144.089C57.535 144.089 57.5214 144.089 57.5214 144.075C57.5214 143.29 58.0797 142.543 59.0847 141.964L111.126 111.859C112.219 111.232 113.65 110.906 115.091 110.906C116.533 110.906 117.991 111.232 119.104 111.859L140.499 124.158C142.638 125.374 142.529 127.236 140.523 128.408Z" fill="url(#paint2_linear_3345_5281)"/>
<path d="M96.5555 142.59L99.7395 140.748C100.142 140.515 100.132 140.145 99.7362 139.916L96.5318 138.074C96.1292 137.841 95.493 137.841 95.0904 138.074L91.9063 139.916C91.5104 140.145 91.5071 140.515 91.9097 140.748L95.1141 142.59C95.5099 142.819 96.1596 142.819 96.5555 142.59Z" fill="url(#paint3_linear_3345_5281)"/>
<path d="M125.621 132.477L122.417 130.634C122.021 130.405 121.371 130.405 120.969 130.638L117.785 132.48C117.389 132.709 117.392 133.083 117.788 133.312L120.992 135.154C121.388 135.383 122.038 135.383 122.434 135.154L125.618 133.312C126.021 133.079 126.017 132.706 125.618 132.477H125.621Z" fill="url(#paint4_linear_3345_5281)"/>
<path d="M95.0024 130.584L91.8184 132.426C91.4157 132.658 91.4258 133.029 91.8285 133.261L95.0329 135.103C95.4287 135.332 96.0716 135.336 96.4743 135.103L99.6583 133.261C100.054 133.032 100.051 132.658 99.655 132.429L96.4506 130.587C96.048 130.355 95.3983 130.355 95.0024 130.584Z" fill="url(#paint5_linear_3345_5281)"/>
<path d="M93.3376 126.694L94.9415 127.613C95.3441 127.846 95.9938 127.846 96.3897 127.617L99.5737 125.775C99.9696 125.546 99.9662 125.172 99.5636 124.939L97.9597 124.02C97.5638 123.791 96.9142 123.791 96.5183 124.02L93.3342 125.862C92.9384 126.091 92.9417 126.465 93.3376 126.694Z" fill="url(#paint6_linear_3345_5281)"/>
<path d="M99.7835 122.966L101.387 123.885C101.79 124.118 102.44 124.118 102.836 123.889L106.02 122.046C106.422 121.814 106.419 121.44 106.016 121.208L104.412 120.288C104.017 120.059 103.367 120.059 102.964 120.292L99.7801 122.134C99.3843 122.363 99.3876 122.737 99.7835 122.966Z" fill="url(#paint7_linear_3345_5281)"/>
<path d="M101.479 131.375C101.875 131.604 102.524 131.604 102.92 131.375L106.104 129.533C106.5 129.304 106.497 128.93 106.101 128.701L102.897 126.859C102.494 126.627 101.844 126.627 101.448 126.856L98.2643 128.698C97.8684 128.927 97.8718 129.301 98.2744 129.533L101.479 131.375Z" fill="url(#paint8_linear_3345_5281)"/>
<path d="M103.008 138.858L106.192 137.016C106.588 136.787 106.585 136.413 106.189 136.184L102.984 134.342C102.582 134.11 101.939 134.113 101.543 134.342L98.359 136.184C97.9563 136.417 97.9597 136.784 98.3624 137.016L101.567 138.858C101.963 139.087 102.606 139.091 103.008 138.858Z" fill="url(#paint9_linear_3345_5281)"/>
<path d="M67.3172 143.594L65.7133 142.674C65.3174 142.445 64.6745 142.442 64.2719 142.674L61.0878 144.516C60.6919 144.745 60.6953 145.119 61.0912 145.348L62.6951 146.268C63.0977 146.5 63.7474 146.5 64.1433 146.271L67.3273 144.429C67.73 144.196 67.7198 143.826 67.3172 143.594Z" fill="url(#paint10_linear_3345_5281)"/>
<path d="M73.9931 137.885L75.597 138.805C75.9997 139.037 76.6493 139.037 77.0452 138.808L80.2293 136.966C80.6252 136.737 80.6218 136.363 80.2191 136.131L78.6153 135.211C78.2194 134.982 77.5697 134.982 77.1738 135.211L73.9898 137.053C73.5939 137.282 73.5973 137.656 73.9931 137.885Z" fill="url(#paint11_linear_3345_5281)"/>
<path d="M67.5405 141.617L69.1443 142.536C69.547 142.768 70.1967 142.768 70.5993 142.536L73.7834 140.694C74.1793 140.465 74.1759 140.091 73.7732 139.859L72.1693 138.939C71.7735 138.71 71.1238 138.71 70.7279 138.939L67.5439 140.781C67.1412 141.014 67.1446 141.388 67.5439 141.617H67.5405Z" fill="url(#paint12_linear_3345_5281)"/>
<path d="M82.1038 138.043L78.9198 139.886C78.5239 140.115 78.5273 140.488 78.9299 140.721L82.1343 142.563C82.5302 142.792 83.1798 142.792 83.5757 142.563L86.7598 140.721C87.1556 140.492 87.1523 140.118 86.7564 139.889L83.552 138.047C83.1494 137.814 82.4997 137.814 82.1038 138.043Z" fill="url(#paint13_linear_3345_5281)"/>
<path d="M90.1096 146.318L93.2936 144.476C93.6895 144.247 93.6861 143.873 93.2903 143.644L90.0859 141.802C89.6833 141.57 89.0404 141.573 88.6445 141.802L85.4604 143.644C85.0645 143.873 85.0612 144.244 85.4638 144.476L88.6682 146.318C89.064 146.547 89.7137 146.547 90.1096 146.318Z" fill="url(#paint14_linear_3345_5281)"/>
<path d="M119.169 136.211L115.964 134.369C115.568 134.14 114.919 134.14 114.523 134.369L111.339 136.211C110.943 136.44 110.946 136.814 111.342 137.043L114.547 138.885C114.942 139.114 115.592 139.114 115.988 138.885L119.172 137.043C119.568 136.814 119.564 136.44 119.169 136.211Z" fill="url(#paint15_linear_3345_5281)"/>
<path d="M88.5497 134.315L85.3657 136.158C84.9698 136.387 84.9732 136.76 85.3758 136.993L88.5802 138.835C88.9761 139.064 89.6257 139.064 90.0216 138.835L93.2057 136.993C93.6083 136.76 93.5982 136.39 93.2023 136.161L89.9979 134.319C89.5953 134.086 88.9524 134.083 88.5497 134.315Z" fill="url(#paint16_linear_3345_5281)"/>
<path d="M112.723 139.94L109.518 138.097C109.122 137.868 108.473 137.868 108.077 138.097L91.9943 147.399C91.5984 147.628 91.6018 148.002 91.9977 148.231L95.202 150.073C95.5979 150.302 96.2476 150.302 96.6435 150.073L112.726 140.771C113.122 140.542 113.119 140.169 112.723 139.94Z" fill="url(#paint17_linear_3345_5281)"/>
<path d="M80.3917 151.107L77.1873 149.265C76.7847 149.033 76.1486 149.033 75.7459 149.265L72.5619 151.107C72.166 151.336 72.1626 151.707 72.5652 151.939L75.7696 153.781C76.1655 154.01 76.8151 154.01 77.211 153.781L80.3951 151.939C80.7977 151.707 80.7876 151.336 80.3917 151.107Z" fill="url(#paint18_linear_3345_5281)"/>
<path d="M86.9256 154.859L83.7212 153.017C83.3253 152.788 82.6824 152.784 82.2798 153.017L79.0957 154.859C78.6998 155.088 78.7032 155.462 79.0991 155.691L82.3035 157.533C82.6993 157.762 83.349 157.762 83.7449 157.533L86.9289 155.691C87.3316 155.458 87.3214 155.088 86.9256 154.859Z" fill="url(#paint19_linear_3345_5281)"/>
<path d="M93.3782 151.127L90.1739 149.285C89.778 149.056 89.1283 149.056 88.7324 149.285L85.5484 151.127C85.1457 151.36 85.1491 151.734 85.5484 151.963L88.7527 153.805C89.1486 154.034 89.7983 154.034 90.201 153.801L93.385 151.959C93.7809 151.73 93.7775 151.356 93.3816 151.127H93.3782Z" fill="url(#paint20_linear_3345_5281)"/>
<path d="M73.8578 147.352L70.6535 145.51C70.2508 145.277 69.6079 145.274 69.2052 145.507L66.0212 147.349C65.6253 147.578 65.6287 147.952 66.0314 148.184L69.2357 150.026C69.6316 150.255 70.2812 150.255 70.6771 150.026L73.8612 148.184C74.2638 147.952 74.2537 147.581 73.8578 147.352Z" fill="url(#paint21_linear_3345_5281)"/>
<path d="M75.6579 141.772L72.4739 143.614C72.0712 143.846 72.0746 144.22 72.4773 144.452L75.6816 146.295C76.0775 146.524 76.7272 146.524 77.1298 146.291L80.3139 144.449C80.7097 144.22 80.7064 143.846 80.3105 143.617L77.1061 141.775C76.7035 141.543 76.0538 141.543 75.6579 141.772Z" fill="url(#paint22_linear_3345_5281)"/>
<path d="M79.0111 148.207L82.2155 150.05C82.6114 150.279 83.261 150.279 83.6637 150.046L86.8477 148.204C87.2436 147.975 87.2402 147.601 86.8444 147.372L83.64 145.53C83.2374 145.298 82.5945 145.301 82.1986 145.53L79.0145 147.372C78.6119 147.605 78.6085 147.975 79.0145 148.207H79.0111Z" fill="url(#paint23_linear_3345_5281)"/>
<path d="M86.8917 130.422L88.4956 131.342C88.8982 131.574 89.5411 131.577 89.9438 131.345L93.1278 129.503C93.5237 129.274 93.5203 128.9 93.1177 128.668L91.5138 127.748C91.1179 127.519 90.4683 127.519 90.0724 127.748L86.8883 129.59C86.4857 129.823 86.4958 130.193 86.8917 130.422Z" fill="url(#paint24_linear_3345_5281)"/>
<path d="M80.4391 134.154L82.0429 135.073C82.4456 135.305 83.0952 135.305 83.4911 135.076L86.6752 133.234C87.0778 133.002 87.0677 132.631 86.665 132.399L85.0612 131.48C84.6653 131.251 84.0224 131.247 83.6197 131.48L80.4357 133.322C80.0398 133.551 80.0432 133.925 80.4391 134.154Z" fill="url(#paint25_linear_3345_5281)"/>
<path d="M106.229 119.238L107.833 120.157C108.236 120.389 108.886 120.389 109.282 120.16L112.466 118.318C112.861 118.089 112.858 117.715 112.455 117.483L110.852 116.564C110.456 116.335 109.806 116.335 109.41 116.564L106.226 118.406C105.83 118.635 105.834 119.009 106.229 119.238Z" fill="url(#paint26_linear_3345_5281)"/>
<path d="M114.374 123.916C114.77 124.145 115.419 124.145 115.815 123.916L118.999 122.073C119.395 121.844 119.392 121.471 118.996 121.242L115.792 119.399C115.389 119.167 114.739 119.167 114.343 119.396L111.159 121.238C110.764 121.467 110.767 121.841 111.17 122.073L114.374 123.916Z" fill="url(#paint27_linear_3345_5281)"/>
<path d="M122.349 127.671L125.533 125.828C125.929 125.599 125.926 125.226 125.53 124.997L122.326 123.154C121.923 122.922 121.28 122.925 120.884 123.154L117.7 124.997C117.304 125.226 117.301 125.596 117.703 125.828L120.908 127.671C121.304 127.9 121.953 127.9 122.349 127.671Z" fill="url(#paint28_linear_3345_5281)"/>
<path d="M132.06 128.752L128.856 126.91C128.46 126.681 127.811 126.681 127.415 126.91L124.231 128.752C123.835 128.981 123.838 129.355 124.234 129.584L127.438 131.426C127.834 131.655 128.484 131.655 128.88 131.426L132.064 129.584C132.46 129.355 132.456 128.981 132.06 128.752Z" fill="url(#paint29_linear_3345_5281)"/>
<path d="M112.675 115.51L114.279 116.429C114.682 116.661 115.332 116.661 115.727 116.432L118.911 114.59C119.307 114.361 119.304 113.987 118.901 113.755L117.297 112.835C116.902 112.606 116.252 112.606 115.856 112.835L112.672 114.678C112.276 114.907 112.279 115.281 112.675 115.51Z" fill="url(#paint30_linear_3345_5281)"/>
<path d="M117.612 118.345L120.816 120.187C121.212 120.416 121.862 120.416 122.258 120.187L125.442 118.345C125.838 118.116 125.834 117.742 125.439 117.513L122.234 115.671C121.832 115.439 121.182 115.439 120.786 115.668L117.602 117.51C117.206 117.739 117.209 118.113 117.612 118.345Z" fill="url(#paint31_linear_3345_5281)"/>
<path d="M124.146 122.1L127.35 123.942C127.746 124.172 128.396 124.172 128.792 123.942L131.976 122.1C132.372 121.871 132.368 121.497 131.972 121.268L128.768 119.426C128.365 119.194 127.723 119.197 127.327 119.426L124.143 121.268C123.747 121.497 123.743 121.868 124.146 122.1Z" fill="url(#paint32_linear_3345_5281)"/>
<path d="M138.506 125.024L135.302 123.181C134.906 122.952 134.256 122.952 133.861 123.181L130.676 125.024C130.281 125.253 130.284 125.626 130.68 125.855L133.884 127.698C134.28 127.927 134.93 127.927 135.326 127.698L138.51 125.855C138.906 125.626 138.902 125.253 138.506 125.024Z" fill="url(#paint33_linear_3345_5281)"/>
<path d="M109.454 135.127L119.084 129.557H119.091C119.487 129.324 119.483 128.95 119.087 128.721L109.349 123.124C108.947 122.892 108.297 122.892 107.894 123.124L104.71 124.966C104.314 125.195 104.318 125.569 104.72 125.802L110.53 129.139L104.802 132.453C104.406 132.682 104.402 133.052 104.805 133.285L108.009 135.127C108.405 135.356 109.055 135.356 109.451 135.127H109.454Z" fill="url(#paint34_linear_3345_5281)"/>
<path d="M69.4658 66.5754C69.4895 66.5821 69.5132 66.5821 69.5335 66.5821C69.6722 66.5821 69.7974 66.4878 69.8279 66.3497L71.4622 59.3615L85.7785 51.1374C85.924 51.0532 85.9748 50.868 85.8902 50.7231C85.8056 50.5783 85.6195 50.5278 85.4773 50.612L71.0494 58.9035C70.9749 58.9473 70.9242 59.0147 70.9039 59.0955L69.2391 66.2116C69.2019 66.3733 69.3034 66.535 69.4658 66.572V66.5754Z" fill="url(#paint35_linear_3345_5281)"/>
<path d="M77.3396 57.5261L78.0096 63.2749L86.462 58.4152L85.792 52.6697L77.3396 57.5261Z" fill="url(#paint36_linear_3345_5281)"/>
<path d="M85.3521 80.0297L85.7616 83.5491L94.214 78.6927L93.8046 75.1734L85.3521 80.0297Z" fill="url(#paint37_linear_3345_5281)"/>
<path d="M75.9692 86.6037C76.5512 86.1221 76.9505 85.398 77.096 84.647C78.7675 86.4387 81.5895 83.1988 80.8925 80.737L93.7132 73.3615C93.8587 73.2773 93.9061 73.0954 93.8215 72.9506C93.7471 72.8058 93.5542 72.7587 93.4087 72.8428L80.6861 80.1577C78.9773 74.8703 75.7121 71.031 71.4317 69.3302C66.9551 67.5318 61.6089 68.2088 56.3811 71.2128C51.177 74.2068 46.3993 79.3259 42.9073 85.6371C39.4627 91.8777 37.4393 98.9399 37.2058 105.517C37.1821 106.363 37.4495 107.073 37.9705 107.447C39.2597 108.424 40.9955 106.942 41.4997 105.214C42.8261 106.538 44.748 104.645 44.8089 102.729C45.0999 93.8916 50.2601 84.0408 57.5688 79.8411C61.0371 77.8508 64.4207 77.4163 67.3679 78.5749C70.244 79.7233 72.413 82.3535 73.4924 85.9874C73.8172 87.156 75.0556 87.3951 75.9658 86.6037H75.9692ZM41.0632 104.049C41.0497 104.11 41.0497 104.17 41.0497 104.231C40.9651 106.134 39.2394 107.693 38.3326 106.972C37.9807 106.72 37.7878 106.201 37.8115 105.548C38.0281 99.0544 40.0312 92.0898 43.4386 85.9335C46.8696 79.7165 51.5763 74.6716 56.6823 71.7517C59.8968 69.8927 63.1451 68.9497 66.1904 68.9497C67.9499 68.9497 69.635 69.2629 71.2118 69.8927C75.4684 71.5833 78.6931 75.4832 80.2969 80.8784C80.6015 81.9056 80.0905 83.3908 79.1803 84.1385C78.1686 84.8592 77.4885 84.519 77.2415 83.704C73.9864 73.0651 65.067 70.7952 56.8176 75.5203C50.8184 78.9925 44.6838 86.5363 42.1291 96.4983C41.5099 98.9366 41.1241 101.398 41.0497 103.79C41.0361 103.874 41.0497 103.958 41.0632 104.056V104.049Z" fill="url(#paint38_linear_3345_5281)"/>
<path d="M64.8775 81.7271C64.9384 81.5722 64.864 81.3971 64.7083 81.3331C62.5326 80.4709 59.9441 80.7942 57.4199 82.2458C54.9261 83.6804 52.6354 86.1288 50.9672 89.1464C50.7744 89.4966 51.3056 89.7829 51.4985 89.436C53.1125 86.5128 55.322 84.1452 57.7211 82.7678C60.1133 81.3903 62.4514 81.0906 64.4816 81.8955C64.6373 81.9561 64.8132 81.882 64.8741 81.7271H64.8775Z" fill="url(#paint39_linear_3345_5281)"/>
<path d="M55.4709 96.6768C55.4202 96.2524 55.2848 95.9291 55.0479 95.7237C54.8111 95.5182 54.5099 95.4273 54.1377 95.461C53.7655 95.4846 53.346 95.6361 52.879 95.9055C52.4222 96.1682 52.0229 96.4882 51.6947 96.8654C51.3631 97.2358 51.1195 97.6433 50.9639 98.071C50.8082 98.5021 50.7541 98.9332 50.8014 99.3575C50.842 99.7112 50.9436 99.9873 51.1094 100.179C51.2752 100.378 51.4951 100.479 51.7658 100.506C51.4646 100.866 51.2481 101.257 51.1094 101.661C50.9774 102.072 50.93 102.476 50.9774 102.894C51.0315 103.355 51.1838 103.699 51.4274 103.928C51.6778 104.153 52.006 104.251 52.4155 104.214C52.8215 104.177 53.2783 104.012 53.7926 103.719C54.3069 103.422 54.7468 103.072 55.1089 102.668C55.4777 102.257 55.745 101.819 55.9142 101.351C56.0901 100.88 56.1476 100.415 56.0935 99.9536C56.0461 99.536 55.9142 99.2329 55.7044 99.0208C55.4878 98.8187 55.207 98.7177 54.8585 98.7278C55.0953 98.4045 55.2679 98.0677 55.3694 97.7242C55.4777 97.3806 55.5081 97.0338 55.4641 96.6768H55.4709ZM51.9553 98.7648C51.9147 98.4247 51.9891 98.1014 52.1786 97.7915C52.3748 97.4817 52.6489 97.219 53.011 97.0102C53.373 96.8014 53.6776 96.734 53.9144 96.7946C54.158 96.8586 54.2934 97.0607 54.334 97.4009C54.3712 97.7275 54.2968 98.0407 54.1039 98.3573C53.911 98.6739 53.6302 98.9399 53.2614 99.1521C52.8993 99.3609 52.6016 99.4249 52.3613 99.3575C52.1278 99.2868 51.9925 99.0915 51.9553 98.7682V98.7648ZM54.916 100.587C54.96 100.971 54.872 101.338 54.6487 101.702C54.422 102.059 54.0971 102.365 53.664 102.614C53.2377 102.86 52.8858 102.941 52.6151 102.87C52.3444 102.793 52.1854 102.564 52.1414 102.183C52.0974 101.799 52.1854 101.439 52.4053 101.078C52.6252 100.718 52.9501 100.418 53.3798 100.173C53.8129 99.9233 54.1648 99.8358 54.4389 99.9099C54.7164 99.9839 54.872 100.206 54.916 100.587Z" fill="url(#paint40_linear_3345_5281)"/>
<path d="M58.3301 100.62C58.7565 100.701 59.2268 100.597 59.7276 100.307C60.225 100.021 60.6547 99.6068 61.0168 99.0747C61.3788 98.5358 61.636 97.9094 61.795 97.192C61.954 96.4747 61.9845 95.7069 61.8897 94.8918C61.795 94.0836 61.6021 93.4471 61.3078 92.989C61.01 92.531 60.6479 92.265 60.2148 92.1808C59.7817 92.1033 59.3148 92.2077 58.8174 92.494C58.3132 92.7836 57.8835 93.1978 57.5282 93.7266C57.1661 94.2654 56.909 94.8918 56.7567 95.6058C56.5977 96.3232 56.5638 97.0944 56.6552 97.8993C56.7499 98.7143 56.9496 99.3474 57.244 99.8055C57.535 100.267 57.897 100.533 58.3301 100.617V100.62ZM57.985 94.9962C58.1914 94.4035 58.5128 93.9724 58.9595 93.7198C59.4027 93.4639 59.7851 93.4875 60.0964 93.7838C60.4043 94.0836 60.6175 94.6797 60.7224 95.5654C60.8273 96.4579 60.7697 97.2021 60.5667 97.8016C60.3603 98.3944 60.0321 98.8288 59.5888 99.0814C59.1456 99.3373 58.7666 99.3104 58.4587 99.014C58.144 98.7109 57.9376 98.1182 57.8327 97.2257C57.7278 96.34 57.7786 95.5923 57.9918 94.9962H57.985Z" fill="url(#paint41_linear_3345_5281)"/>
<path d="M63.5105 96.175C63.3007 96.2962 63.1349 96.4814 63.0131 96.7239C62.8913 96.9731 62.8473 97.2291 62.8778 97.4952C62.9082 97.7578 63.0097 97.9262 63.1688 98.0172C63.3346 98.1047 63.5139 98.0912 63.7169 97.9734C63.92 97.8555 64.0824 97.6736 64.2076 97.4211C64.3294 97.1718 64.3801 96.9159 64.3497 96.6532C64.3192 96.3838 64.2245 96.212 64.0621 96.1211C63.903 96.0403 63.7169 96.0537 63.5071 96.175H63.5105Z" fill="url(#paint42_linear_3345_5281)"/>
<path d="M68.4981 87.0415L64.8234 89.1531L64.979 93.4774L66.4915 92.6085C67.104 92.2549 67.554 92.1033 67.8281 92.1572C68.1089 92.2077 68.2646 92.4333 68.312 92.824C68.3526 93.1844 68.2714 93.5346 68.0616 93.8748C67.845 94.2183 67.5371 94.5079 67.1277 94.7437C66.7758 94.9457 66.434 95.067 66.0923 95.1175C65.7573 95.1747 65.4528 95.1512 65.1922 95.0535L64.8302 96.4343C65.1482 96.5454 65.5238 96.5555 65.9637 96.4713C66.3968 96.3871 66.8367 96.2188 67.2867 95.9594C67.8315 95.6462 68.2713 95.2724 68.6165 94.8481C68.9582 94.417 69.2052 93.9657 69.344 93.4942C69.4895 93.0193 69.5335 92.5479 69.4793 92.0932C69.3947 91.3792 69.1207 90.9313 68.6436 90.7663C68.1732 90.5912 67.4965 90.7528 66.6134 91.2614L66.0111 91.6082L65.94 89.7728L68.6334 88.2236L68.4947 87.0415H68.4981Z" fill="url(#paint43_linear_3345_5281)"/>
<path d="M42.2881 137.212C41.6283 137.589 41.1715 138.545 41.2629 139.343C41.3576 140.142 41.9667 140.482 42.6231 140.105C43.2728 139.731 43.7329 138.774 43.6382 137.979C43.5435 137.181 42.9344 136.841 42.2847 137.215L42.2881 137.212Z" fill="url(#paint44_linear_3345_5281)"/>
<path d="M45.912 135.127C45.2522 135.504 44.7954 136.461 44.8868 137.259C44.9815 138.057 45.5906 138.397 46.247 138.02C46.9034 137.643 47.3569 136.69 47.2621 135.895C47.1674 135.097 46.5651 134.753 45.9086 135.13L45.912 135.127Z" fill="url(#paint45_linear_3345_5281)"/>
<path d="M49.5359 133.046C48.8795 133.423 48.4193 134.379 48.5107 135.177C48.6054 135.976 49.2145 136.316 49.8709 135.939C50.5307 135.561 50.9808 134.608 50.886 133.814C50.7913 133.015 50.189 132.672 49.5326 133.049L49.5359 133.046Z" fill="url(#paint46_linear_3345_5281)"/>
<path d="M120.925 48.7867C119.95 49.3491 118.989 49.3592 118.289 48.8203C117.612 48.295 116.814 47.8639 115.914 47.5473C115.03 47.2341 114.002 47.3755 113.014 47.9413C111.241 48.9618 109.82 51.1845 109.478 53.4713C108.791 57.9976 106.202 62.5643 106.175 62.6081C106.091 62.7529 106.141 62.9382 106.287 63.0223C106.334 63.0493 106.388 63.0628 106.439 63.0628C106.544 63.0628 106.642 63.0089 106.7 62.9146C106.727 62.8708 109.376 58.1828 110.077 53.5622C110.395 51.4438 111.697 49.3962 113.315 48.4667C114.147 47.9885 114.997 47.8672 115.707 48.1165C116.543 48.4128 117.287 48.8136 117.913 49.2986C118.803 49.9856 120.042 49.989 121.222 49.312C121.906 48.918 122.546 48.3152 123.07 47.5641C123.879 46.4124 124.796 45.5367 125.794 44.9608C126.704 44.4388 127.702 44.1559 128.761 44.1189C130.358 44.065 131.736 43.7147 132.849 43.0715C134.371 42.1959 135.041 40.9936 135.305 40.357C135.965 38.7641 135.694 37.3058 135.085 36.6861C134.97 36.5683 134.778 36.5649 134.656 36.6828C134.537 36.8007 134.534 36.9892 134.652 37.1105C135.045 37.5113 135.332 38.7102 134.744 40.1314C134.51 40.6972 133.911 41.7682 132.548 42.5529C131.519 43.1456 130.24 43.4689 128.744 43.5194C127.584 43.5598 126.491 43.8697 125.496 44.4422C124.42 45.0619 123.439 45.9981 122.579 47.224C122.106 47.9009 121.534 48.4431 120.925 48.7934V48.7867Z" fill="url(#paint47_linear_3345_5281)"/>
<path d="M104.89 43.9943L122.139 34.0795C122.285 33.9953 122.336 33.81 122.251 33.6652C122.167 33.5204 121.98 33.4699 121.838 33.5541L104.588 43.4689C104.443 43.5531 104.392 43.7383 104.477 43.8831C104.558 44.0246 104.744 44.0785 104.89 43.9943Z" fill="url(#paint48_linear_3345_5281)"/>
<path d="M104.89 48.3488L114.462 42.8492C114.607 42.765 114.658 42.5798 114.574 42.435C114.489 42.2902 114.306 42.243 114.161 42.3238L104.588 47.8235C104.443 47.9077 104.392 48.0929 104.477 48.2377C104.558 48.3792 104.744 48.433 104.89 48.3488Z" fill="url(#paint49_linear_3345_5281)"/>
<path d="M61.3788 107.1C61.2942 106.955 61.1115 106.908 60.966 106.989L46.1895 115.479C46.044 115.563 45.9932 115.749 46.0778 115.893C46.132 115.991 46.2369 116.045 46.3418 116.045C46.3925 116.045 46.4466 116.032 46.494 116.005L61.2705 107.514C61.416 107.43 61.4668 107.245 61.3822 107.1H61.3788Z" fill="url(#paint50_linear_3345_5281)"/>
<path d="M41.7467 120.787L43.5536 119.75C44.0781 119.446 44.4469 118.679 44.3725 118.042L44.1153 115.853C44.0409 115.217 43.5502 114.944 43.0257 115.243L41.2189 116.281C40.6944 116.58 40.3256 117.352 40.4 117.985L40.6572 120.174C40.7316 120.81 41.2222 121.083 41.7467 120.784V120.787Z" fill="url(#paint51_linear_3345_5281)"/>
<path d="M61.7984 114.86L47.0219 123.35C46.8764 123.434 46.8256 123.619 46.9102 123.764C46.9643 123.862 47.0692 123.916 47.1741 123.916C47.2249 123.916 47.279 123.902 47.3264 123.875L62.1029 115.385C62.2484 115.301 62.2992 115.115 62.2146 114.971C62.13 114.826 61.9439 114.775 61.8018 114.86H61.7984Z" fill="url(#paint52_linear_3345_5281)"/>
<path d="M43.8581 123.114L42.0513 124.151C41.5268 124.454 41.158 125.222 41.2324 125.855L41.4896 128.044C41.564 128.681 42.0546 128.954 42.5791 128.654L44.386 127.617C44.9105 127.314 45.2793 126.546 45.2048 125.913L44.9477 123.724C44.8732 123.087 44.3826 122.814 43.8581 123.114Z" fill="url(#paint53_linear_3345_5281)"/>
<path d="M84.3032 93.9286C84.2186 93.7838 84.0325 93.7367 83.8904 93.8175L70.4775 101.523C70.332 101.607 70.2813 101.792 70.3659 101.937C70.42 102.035 70.5249 102.089 70.6298 102.089C70.6805 102.089 70.7347 102.075 70.782 102.048L84.1949 94.3429C84.3404 94.2587 84.3912 94.0735 84.3066 93.9286H84.3032Z" fill="url(#paint54_linear_3345_5281)"/>
<path d="M66.0314 106.831L67.8382 105.793C68.3627 105.49 68.7315 104.722 68.6571 104.089L68.3999 101.9C68.3255 101.264 67.8349 100.991 67.3104 101.291L65.5035 102.328C64.979 102.631 64.6102 103.399 64.6847 104.032L64.9418 106.221C65.0163 106.858 65.5069 107.13 66.0314 106.831Z" fill="url(#paint55_linear_3345_5281)"/>
<path d="M84.7194 101.688L71.3065 109.397C71.161 109.481 71.1103 109.666 71.1949 109.811C71.249 109.909 71.3539 109.963 71.4588 109.963C71.5095 109.963 71.5637 109.949 71.611 109.922L85.0239 102.213C85.1694 102.129 85.2202 101.944 85.1356 101.799C85.051 101.654 84.8649 101.607 84.7228 101.688H84.7194Z" fill="url(#paint56_linear_3345_5281)"/>
<path d="M68.1462 109.158L66.3393 110.195C65.8148 110.498 65.446 111.266 65.5204 111.899L65.7776 114.088C65.852 114.725 66.3427 114.998 66.8671 114.698L68.674 113.661C69.1985 113.358 69.5673 112.59 69.4929 111.956L69.2357 109.767C69.1613 109.131 68.6706 108.858 68.1462 109.158Z" fill="url(#paint57_linear_3345_5281)"/>
<path d="M94.6505 87.9811C94.7046 88.0788 94.8095 88.1327 94.9144 88.1327C94.9652 88.1327 95.0193 88.1192 95.0667 88.0922L108.48 80.3834C108.625 80.2992 108.676 80.1139 108.591 79.9691C108.507 79.8243 108.321 79.7738 108.178 79.858L94.7655 87.5669C94.62 87.6511 94.5693 87.8363 94.6539 87.9811H94.6505Z" fill="url(#paint58_linear_3345_5281)"/>
<path d="M90.316 92.8745L92.1229 91.8372C92.6474 91.5341 93.0162 90.7663 92.9417 90.1331L92.6846 87.9441C92.6101 87.3075 92.1195 87.0348 91.595 87.3345L89.7882 88.3718C89.2637 88.6749 88.8949 89.4427 88.9693 90.0759L89.2265 92.265C89.3009 92.9015 89.7915 93.1743 90.316 92.8745Z" fill="url(#paint59_linear_3345_5281)"/>
<path d="M95.4829 95.8517C95.537 95.9493 95.6419 96.0032 95.7468 96.0032C95.7976 96.0032 95.8517 95.9897 95.8991 95.9628L109.312 88.2573C109.457 88.1731 109.508 87.9879 109.424 87.843C109.339 87.6982 109.153 87.6511 109.011 87.7319L95.5979 95.4374C95.4524 95.5216 95.4017 95.7069 95.4863 95.8517H95.4829Z" fill="url(#paint60_linear_3345_5281)"/>
<path d="M92.4308 95.205L90.6239 96.2423C90.0994 96.5454 89.7306 97.3133 89.8051 97.9498L90.0588 100.139C90.1333 100.775 90.6239 101.048 91.1484 100.748L92.9553 99.7112C93.4797 99.4114 93.8486 98.6402 93.7741 98.0071L93.5203 95.818C93.4459 95.1815 92.9553 94.9087 92.4308 95.2084V95.205Z" fill="url(#paint61_linear_3345_5281)"/>
<path d="M131.125 6.24022C132.86 6.24022 134.261 4.84438 134.261 3.12558C134.261 1.40678 132.86 0 131.125 0C129.389 0 128 1.39583 128 3.12558C128 4.85533 129.4 6.24022 131.125 6.24022ZM131.125 0.968857C132.311 0.968857 133.289 1.93775 133.289 3.12558C133.289 4.31341 132.317 5.27133 131.125 5.27133C129.933 5.27133 128.972 4.30794 128.972 3.12558C128.972 1.94322 129.944 0.968857 131.125 0.968857Z" fill="url(#paint62_linear_3345_5281)"/>
<path d="M46.125 177.24C47.8605 177.24 49.2609 175.844 49.2609 174.126C49.2609 172.407 47.8605 171 46.125 171C44.3895 171 43 172.396 43 174.126C43 175.855 44.4005 177.24 46.125 177.24ZM46.125 171.969C47.3112 171.969 48.2888 172.938 48.2888 174.126C48.2888 175.313 47.3167 176.271 46.125 176.271C44.9332 176.271 43.9721 175.308 43.9721 174.126C43.9721 172.943 44.9442 171.969 46.125 171.969Z" fill="url(#paint63_linear_3345_5281)"/>
<path d="M160 58.003C160 58.9592 160.363 59.4566 160.684 59.8979C160.987 60.3147 161.247 60.6719 161.247 61.4285C161.247 61.6001 161.388 61.7402 161.561 61.7402C161.734 61.7402 161.875 61.6001 161.875 61.4285C161.875 60.4723 161.512 59.9749 161.191 59.5336C160.888 59.1168 160.627 58.7596 160.627 58.0065C160.627 57.2535 160.888 56.8927 161.191 56.4794C161.512 56.0416 161.875 55.5443 161.875 54.5881C161.875 53.6319 161.512 53.1345 161.191 52.6932C160.888 52.2764 160.627 51.9192 160.627 51.1626C160.627 50.4061 160.888 50.0488 161.191 49.632C161.512 49.1907 161.875 48.6934 161.875 47.7372C161.875 46.781 161.512 46.2836 161.191 45.8423C160.888 45.4255 160.627 45.0683 160.627 44.3117C160.627 44.1401 160.486 44 160.314 44C160.141 44 160 44.1401 160 44.3117C160 45.2679 160.363 45.7688 160.684 46.2066C160.987 46.6234 161.247 46.9806 161.247 47.7372C161.247 48.4937 160.987 48.851 160.684 49.2678C160.363 49.7091 160 50.2064 160 51.1626C160 52.1188 160.363 52.6162 160.684 53.0575C160.987 53.4743 161.247 53.8315 161.247 54.5881C161.247 55.3446 160.987 55.7019 160.684 56.1152C160.363 56.553 160 57.0503 160 58.0065V58.003Z" fill="url(#paint64_linear_3345_5281)"/>
<path d="M28.0004 23.0662C28.1731 23.0662 28.314 22.9261 28.314 22.7545V21.0102C28.314 20.8386 28.1731 20.6985 28.0004 20.6985C27.8277 20.6985 27.6868 20.8386 27.6868 21.0102V22.7545C27.6868 22.9261 27.8277 23.0662 28.0004 23.0662Z" fill="url(#paint65_linear_3345_5281)"/>
<path d="M27.6903 26.3235C27.6903 26.4951 27.8312 26.6352 28.0039 26.6352C28.1766 26.6352 28.3175 26.4951 28.3175 26.3235V24.5793C28.3175 24.4076 28.1766 24.2675 28.0039 24.2675C27.8312 24.2675 27.6903 24.4076 27.6903 24.5793V26.3235Z" fill="url(#paint66_linear_3345_5281)"/>
<path d="M27.0842 23.9768C27.2568 23.9768 27.3978 23.8367 27.3978 23.6651C27.3978 23.4935 27.2568 23.3534 27.0842 23.3534H25.3293C25.1566 23.3534 25.0156 23.4935 25.0156 23.6651C25.0156 23.8367 25.1566 23.9768 25.3293 23.9768H27.0842Z" fill="url(#paint67_linear_3345_5281)"/>
<path d="M30.675 23.3569H28.9201C28.7475 23.3569 28.6065 23.497 28.6065 23.6686C28.6065 23.8402 28.7475 23.9803 28.9201 23.9803H30.675C30.8477 23.9803 30.9887 23.8402 30.9887 23.6686C30.9887 23.497 30.8477 23.3569 30.675 23.3569Z" fill="url(#paint68_linear_3345_5281)"/>
<path d="M2.98476 144.368C3.15743 144.368 3.29839 144.228 3.29839 144.056V142.312C3.29839 142.14 3.15743 142 2.98476 142C2.81209 142 2.67113 142.14 2.67113 142.312V144.056C2.67113 144.228 2.81209 144.368 2.98476 144.368Z" fill="url(#paint69_linear_3345_5281)"/>
<path d="M2.67466 147.625C2.67466 147.797 2.81561 147.937 2.98829 147.937C3.16096 147.937 3.30192 147.797 3.30192 147.625V145.881C3.30192 145.709 3.16096 145.569 2.98829 145.569C2.81561 145.569 2.67466 145.709 2.67466 145.881V147.625Z" fill="url(#paint70_linear_3345_5281)"/>
<path d="M2.06854 145.278C2.24121 145.278 2.38217 145.138 2.38217 144.967C2.38217 144.795 2.24121 144.655 2.06854 144.655H0.313629C0.140957 144.655 0 144.795 0 144.967C0 145.138 0.140957 145.278 0.313629 145.278H2.06854Z" fill="url(#paint71_linear_3345_5281)"/>
<path d="M5.65942 144.658H3.90451C3.73183 144.658 3.59088 144.799 3.59088 144.97C3.59088 145.142 3.73183 145.282 3.90451 145.282H5.65942C5.83209 145.282 5.97305 145.142 5.97305 144.97C5.97305 144.799 5.83209 144.658 5.65942 144.658Z" fill="url(#paint72_linear_3345_5281)"/>
<defs>
<linearGradient id="paint0_linear_3345_5281" x1="0" y1="88.6201" x2="169" y2="88.6201" gradientUnits="userSpaceOnUse">
<stop stop-color="#5B2BE0"/>
<stop offset="1" stop-color="#6B80F7"/>
</linearGradient>
<linearGradient id="paint1_linear_3345_5281" x1="0" y1="88.6201" x2="169" y2="88.6201" gradientUnits="userSpaceOnUse">
<stop stop-color="#5B2BE0"/>
<stop offset="1" stop-color="#6B80F7"/>
</linearGradient>
<linearGradient id="paint2_linear_3345_5281" x1="0" y1="88.6201" x2="169" y2="88.6201" gradientUnits="userSpaceOnUse">
<stop stop-color="#5B2BE0"/>
<stop offset="1" stop-color="#6B80F7"/>
</linearGradient>
<linearGradient id="paint3_linear_3345_5281" x1="0" y1="88.6201" x2="169" y2="88.6201" gradientUnits="userSpaceOnUse">
<stop stop-color="#5B2BE0"/>
<stop offset="1" stop-color="#6B80F7"/>
</linearGradient>
<linearGradient id="paint4_linear_3345_5281" x1="0" y1="88.6201" x2="169" y2="88.6201" gradientUnits="userSpaceOnUse">
<stop stop-color="#5B2BE0"/>
<stop offset="1" stop-color="#6B80F7"/>
</linearGradient>
<linearGradient id="paint5_linear_3345_5281" x1="0" y1="88.6201" x2="169" y2="88.6201" gradientUnits="userSpaceOnUse">
<stop stop-color="#5B2BE0"/>
<stop offset="1" stop-color="#6B80F7"/>
</linearGradient>
<linearGradient id="paint6_linear_3345_5281" x1="0" y1="88.6201" x2="169" y2="88.6201" gradientUnits="userSpaceOnUse">
<stop stop-color="#5B2BE0"/>
<stop offset="1" stop-color="#6B80F7"/>
</linearGradient>
<linearGradient id="paint7_linear_3345_5281" x1="0" y1="88.6201" x2="169" y2="88.6201" gradientUnits="userSpaceOnUse">
<stop stop-color="#5B2BE0"/>
<stop offset="1" stop-color="#6B80F7"/>
</linearGradient>
<linearGradient id="paint8_linear_3345_5281" x1="0" y1="88.6201" x2="169" y2="88.6201" gradientUnits="userSpaceOnUse">
<stop stop-color="#5B2BE0"/>
<stop offset="1" stop-color="#6B80F7"/>
</linearGradient>
<linearGradient id="paint9_linear_3345_5281" x1="0" y1="88.6201" x2="169" y2="88.6201" gradientUnits="userSpaceOnUse">
<stop stop-color="#5B2BE0"/>
<stop offset="1" stop-color="#6B80F7"/>
</linearGradient>
<linearGradient id="paint10_linear_3345_5281" x1="0" y1="88.6201" x2="169" y2="88.6201" gradientUnits="userSpaceOnUse">
<stop stop-color="#5B2BE0"/>
<stop offset="1" stop-color="#6B80F7"/>
</linearGradient>
<linearGradient id="paint11_linear_3345_5281" x1="0" y1="88.6201" x2="169" y2="88.6201" gradientUnits="userSpaceOnUse">
<stop stop-color="#5B2BE0"/>
<stop offset="1" stop-color="#6B80F7"/>
</linearGradient>
<linearGradient id="paint12_linear_3345_5281" x1="0" y1="88.6201" x2="169" y2="88.6201" gradientUnits="userSpaceOnUse">
<stop stop-color="#5B2BE0"/>
<stop offset="1" stop-color="#6B80F7"/>
</linearGradient>
<linearGradient id="paint13_linear_3345_5281" x1="0" y1="88.6201" x2="169" y2="88.6201" gradientUnits="userSpaceOnUse">
<stop stop-color="#5B2BE0"/>
<stop offset="1" stop-color="#6B80F7"/>
</linearGradient>
<linearGradient id="paint14_linear_3345_5281" x1="0" y1="88.6201" x2="169" y2="88.6201" gradientUnits="userSpaceOnUse">
<stop stop-color="#5B2BE0"/>
<stop offset="1" stop-color="#6B80F7"/>
</linearGradient>
<linearGradient id="paint15_linear_3345_5281" x1="0" y1="88.6201" x2="169" y2="88.6201" gradientUnits="userSpaceOnUse">
<stop stop-color="#5B2BE0"/>
<stop offset="1" stop-color="#6B80F7"/>
</linearGradient>
<linearGradient id="paint16_linear_3345_5281" x1="0" y1="88.6201" x2="169" y2="88.6201" gradientUnits="userSpaceOnUse">
<stop stop-color="#5B2BE0"/>
<stop offset="1" stop-color="#6B80F7"/>
</linearGradient>
<linearGradient id="paint17_linear_3345_5281" x1="0" y1="88.6201" x2="169" y2="88.6201" gradientUnits="userSpaceOnUse">
<stop stop-color="#5B2BE0"/>
<stop offset="1" stop-color="#6B80F7"/>
</linearGradient>
<linearGradient id="paint18_linear_3345_5281" x1="0" y1="88.6201" x2="169" y2="88.6201" gradientUnits="userSpaceOnUse">
<stop stop-color="#5B2BE0"/>
<stop offset="1" stop-color="#6B80F7"/>
</linearGradient>
<linearGradient id="paint19_linear_3345_5281" x1="0" y1="88.6201" x2="169" y2="88.6201" gradientUnits="userSpaceOnUse">
<stop stop-color="#5B2BE0"/>
<stop offset="1" stop-color="#6B80F7"/>
</linearGradient>
<linearGradient id="paint20_linear_3345_5281" x1="0" y1="88.6201" x2="169" y2="88.6201" gradientUnits="userSpaceOnUse">
<stop stop-color="#5B2BE0"/>
<stop offset="1" stop-color="#6B80F7"/>
</linearGradient>
<linearGradient id="paint21_linear_3345_5281" x1="0" y1="88.6201" x2="169" y2="88.6201" gradientUnits="userSpaceOnUse">
<stop stop-color="#5B2BE0"/>
<stop offset="1" stop-color="#6B80F7"/>
</linearGradient>
<linearGradient id="paint22_linear_3345_5281" x1="0" y1="88.6201" x2="169" y2="88.6201" gradientUnits="userSpaceOnUse">
<stop stop-color="#5B2BE0"/>
<stop offset="1" stop-color="#6B80F7"/>
</linearGradient>
<linearGradient id="paint23_linear_3345_5281" x1="0" y1="88.6201" x2="169" y2="88.6201" gradientUnits="userSpaceOnUse">
<stop stop-color="#5B2BE0"/>
<stop offset="1" stop-color="#6B80F7"/>
</linearGradient>
<linearGradient id="paint24_linear_3345_5281" x1="0" y1="88.6201" x2="169" y2="88.6201" gradientUnits="userSpaceOnUse">
<stop stop-color="#5B2BE0"/>
<stop offset="1" stop-color="#6B80F7"/>
</linearGradient>
<linearGradient id="paint25_linear_3345_5281" x1="0" y1="88.6201" x2="169" y2="88.6201" gradientUnits="userSpaceOnUse">
<stop stop-color="#5B2BE0"/>
<stop offset="1" stop-color="#6B80F7"/>
</linearGradient>
<linearGradient id="paint26_linear_3345_5281" x1="0" y1="88.6201" x2="169" y2="88.6201" gradientUnits="userSpaceOnUse">
<stop stop-color="#5B2BE0"/>
<stop offset="1" stop-color="#6B80F7"/>
</linearGradient>
<linearGradient id="paint27_linear_3345_5281" x1="0" y1="88.6201" x2="169" y2="88.6201" gradientUnits="userSpaceOnUse">
<stop stop-color="#5B2BE0"/>
<stop offset="1" stop-color="#6B80F7"/>
</linearGradient>
<linearGradient id="paint28_linear_3345_5281" x1="0" y1="88.6201" x2="169" y2="88.6201" gradientUnits="userSpaceOnUse">
<stop stop-color="#5B2BE0"/>
<stop offset="1" stop-color="#6B80F7"/>
</linearGradient>
<linearGradient id="paint29_linear_3345_5281" x1="0" y1="88.6201" x2="169" y2="88.6201" gradientUnits="userSpaceOnUse">
<stop stop-color="#5B2BE0"/>
<stop offset="1" stop-color="#6B80F7"/>
</linearGradient>
<linearGradient id="paint30_linear_3345_5281" x1="0" y1="88.6201" x2="169" y2="88.6201" gradientUnits="userSpaceOnUse">
<stop stop-color="#5B2BE0"/>
<stop offset="1" stop-color="#6B80F7"/>
</linearGradient>
<linearGradient id="paint31_linear_3345_5281" x1="0" y1="88.6201" x2="169" y2="88.6201" gradientUnits="userSpaceOnUse">
<stop stop-color="#5B2BE0"/>
<stop offset="1" stop-color="#6B80F7"/>
</linearGradient>
<linearGradient id="paint32_linear_3345_5281" x1="0" y1="88.6201" x2="169" y2="88.6201" gradientUnits="userSpaceOnUse">
<stop stop-color="#5B2BE0"/>
<stop offset="1" stop-color="#6B80F7"/>
</linearGradient>
<linearGradient id="paint33_linear_3345_5281" x1="0" y1="88.6201" x2="169" y2="88.6201" gradientUnits="userSpaceOnUse">
<stop stop-color="#5B2BE0"/>
<stop offset="1" stop-color="#6B80F7"/>
</linearGradient>
<linearGradient id="paint34_linear_3345_5281" x1="0" y1="88.6201" x2="169" y2="88.6201" gradientUnits="userSpaceOnUse">
<stop stop-color="#5B2BE0"/>
<stop offset="1" stop-color="#6B80F7"/>
</linearGradient>
<linearGradient id="paint35_linear_3345_5281" x1="0" y1="88.6201" x2="169" y2="88.6201" gradientUnits="userSpaceOnUse">
<stop stop-color="#5B2BE0"/>
<stop offset="1" stop-color="#6B80F7"/>
</linearGradient>
<linearGradient id="paint36_linear_3345_5281" x1="0" y1="88.6201" x2="169" y2="88.6201" gradientUnits="userSpaceOnUse">
<stop stop-color="#5B2BE0"/>
<stop offset="1" stop-color="#6B80F7"/>
</linearGradient>
<linearGradient id="paint37_linear_3345_5281" x1="0" y1="88.6201" x2="169" y2="88.6201" gradientUnits="userSpaceOnUse">
<stop stop-color="#5B2BE0"/>
<stop offset="1" stop-color="#6B80F7"/>
</linearGradient>
<linearGradient id="paint38_linear_3345_5281" x1="0" y1="88.6201" x2="169" y2="88.6201" gradientUnits="userSpaceOnUse">
<stop stop-color="#5B2BE0"/>
<stop offset="1" stop-color="#6B80F7"/>
</linearGradient>
<linearGradient id="paint39_linear_3345_5281" x1="0" y1="88.6201" x2="169" y2="88.6201" gradientUnits="userSpaceOnUse">
<stop stop-color="#5B2BE0"/>
<stop offset="1" stop-color="#6B80F7"/>
</linearGradient>
<linearGradient id="paint40_linear_3345_5281" x1="0" y1="88.6201" x2="169" y2="88.6201" gradientUnits="userSpaceOnUse">
<stop stop-color="#5B2BE0"/>
<stop offset="1" stop-color="#6B80F7"/>
</linearGradient>
<linearGradient id="paint41_linear_3345_5281" x1="0" y1="88.6201" x2="169" y2="88.6201" gradientUnits="userSpaceOnUse">
<stop stop-color="#5B2BE0"/>
<stop offset="1" stop-color="#6B80F7"/>
</linearGradient>
<linearGradient id="paint42_linear_3345_5281" x1="0" y1="88.6201" x2="169" y2="88.6201" gradientUnits="userSpaceOnUse">
<stop stop-color="#5B2BE0"/>
<stop offset="1" stop-color="#6B80F7"/>
</linearGradient>
<linearGradient id="paint43_linear_3345_5281" x1="0" y1="88.6201" x2="169" y2="88.6201" gradientUnits="userSpaceOnUse">
<stop stop-color="#5B2BE0"/>
<stop offset="1" stop-color="#6B80F7"/>
</linearGradient>
<linearGradient id="paint44_linear_3345_5281" x1="0" y1="88.6201" x2="169" y2="88.6201" gradientUnits="userSpaceOnUse">
<stop stop-color="#5B2BE0"/>
<stop offset="1" stop-color="#6B80F7"/>
</linearGradient>
<linearGradient id="paint45_linear_3345_5281" x1="0" y1="88.6201" x2="169" y2="88.6201" gradientUnits="userSpaceOnUse">
<stop stop-color="#5B2BE0"/>
<stop offset="1" stop-color="#6B80F7"/>
</linearGradient>
<linearGradient id="paint46_linear_3345_5281" x1="0" y1="88.6201" x2="169" y2="88.6201" gradientUnits="userSpaceOnUse">
<stop stop-color="#5B2BE0"/>
<stop offset="1" stop-color="#6B80F7"/>
</linearGradient>
<linearGradient id="paint47_linear_3345_5281" x1="0" y1="88.6201" x2="169" y2="88.6201" gradientUnits="userSpaceOnUse">
<stop stop-color="#5B2BE0"/>
<stop offset="1" stop-color="#6B80F7"/>
</linearGradient>
<linearGradient id="paint48_linear_3345_5281" x1="0" y1="88.6201" x2="169" y2="88.6201" gradientUnits="userSpaceOnUse">
<stop stop-color="#5B2BE0"/>
<stop offset="1" stop-color="#6B80F7"/>
</linearGradient>
<linearGradient id="paint49_linear_3345_5281" x1="0" y1="88.6201" x2="169" y2="88.6201" gradientUnits="userSpaceOnUse">
<stop stop-color="#5B2BE0"/>
<stop offset="1" stop-color="#6B80F7"/>
</linearGradient>
<linearGradient id="paint50_linear_3345_5281" x1="0" y1="88.6201" x2="169" y2="88.6201" gradientUnits="userSpaceOnUse">
<stop stop-color="#5B2BE0"/>
<stop offset="1" stop-color="#6B80F7"/>
</linearGradient>
<linearGradient id="paint51_linear_3345_5281" x1="0" y1="88.6201" x2="169" y2="88.6201" gradientUnits="userSpaceOnUse">
<stop stop-color="#5B2BE0"/>
<stop offset="1" stop-color="#6B80F7"/>
</linearGradient>
<linearGradient id="paint52_linear_3345_5281" x1="0" y1="88.6201" x2="169" y2="88.6201" gradientUnits="userSpaceOnUse">
<stop stop-color="#5B2BE0"/>
<stop offset="1" stop-color="#6B80F7"/>
</linearGradient>
<linearGradient id="paint53_linear_3345_5281" x1="0" y1="88.6201" x2="169" y2="88.6201" gradientUnits="userSpaceOnUse">
<stop stop-color="#5B2BE0"/>
<stop offset="1" stop-color="#6B80F7"/>
</linearGradient>
<linearGradient id="paint54_linear_3345_5281" x1="0" y1="88.6201" x2="169" y2="88.6201" gradientUnits="userSpaceOnUse">
<stop stop-color="#5B2BE0"/>
<stop offset="1" stop-color="#6B80F7"/>
</linearGradient>
<linearGradient id="paint55_linear_3345_5281" x1="0" y1="88.6201" x2="169" y2="88.6201" gradientUnits="userSpaceOnUse">
<stop stop-color="#5B2BE0"/>
<stop offset="1" stop-color="#6B80F7"/>
</linearGradient>
<linearGradient id="paint56_linear_3345_5281" x1="0" y1="88.6201" x2="169" y2="88.6201" gradientUnits="userSpaceOnUse">
<stop stop-color="#5B2BE0"/>
<stop offset="1" stop-color="#6B80F7"/>
</linearGradient>
<linearGradient id="paint57_linear_3345_5281" x1="0" y1="88.6201" x2="169" y2="88.6201" gradientUnits="userSpaceOnUse">
<stop stop-color="#5B2BE0"/>
<stop offset="1" stop-color="#6B80F7"/>
</linearGradient>
<linearGradient id="paint58_linear_3345_5281" x1="0" y1="88.6201" x2="169" y2="88.6201" gradientUnits="userSpaceOnUse">
<stop stop-color="#5B2BE0"/>
<stop offset="1" stop-color="#6B80F7"/>
</linearGradient>
<linearGradient id="paint59_linear_3345_5281" x1="0" y1="88.6201" x2="169" y2="88.6201" gradientUnits="userSpaceOnUse">
<stop stop-color="#5B2BE0"/>
<stop offset="1" stop-color="#6B80F7"/>
</linearGradient>
<linearGradient id="paint60_linear_3345_5281" x1="0" y1="88.6201" x2="169" y2="88.6201" gradientUnits="userSpaceOnUse">
<stop stop-color="#5B2BE0"/>
<stop offset="1" stop-color="#6B80F7"/>
</linearGradient>
<linearGradient id="paint61_linear_3345_5281" x1="0" y1="88.6201" x2="169" y2="88.6201" gradientUnits="userSpaceOnUse">
<stop stop-color="#5B2BE0"/>
<stop offset="1" stop-color="#6B80F7"/>
</linearGradient>
<linearGradient id="paint62_linear_3345_5281" x1="0" y1="88.6201" x2="169" y2="88.6201" gradientUnits="userSpaceOnUse">
<stop stop-color="#5B2BE0"/>
<stop offset="1" stop-color="#6B80F7"/>
</linearGradient>
<linearGradient id="paint63_linear_3345_5281" x1="0" y1="88.6201" x2="169" y2="88.6201" gradientUnits="userSpaceOnUse">
<stop stop-color="#5B2BE0"/>
<stop offset="1" stop-color="#6B80F7"/>
</linearGradient>
<linearGradient id="paint64_linear_3345_5281" x1="0" y1="88.6201" x2="169" y2="88.6201" gradientUnits="userSpaceOnUse">
<stop stop-color="#5B2BE0"/>
<stop offset="1" stop-color="#6B80F7"/>
</linearGradient>
<linearGradient id="paint65_linear_3345_5281" x1="0" y1="88.6201" x2="169" y2="88.6201" gradientUnits="userSpaceOnUse">
<stop stop-color="#5B2BE0"/>
<stop offset="1" stop-color="#6B80F7"/>
</linearGradient>
<linearGradient id="paint66_linear_3345_5281" x1="0" y1="88.6201" x2="169" y2="88.6201" gradientUnits="userSpaceOnUse">
<stop stop-color="#5B2BE0"/>
<stop offset="1" stop-color="#6B80F7"/>
</linearGradient>
<linearGradient id="paint67_linear_3345_5281" x1="0" y1="88.6201" x2="169" y2="88.6201" gradientUnits="userSpaceOnUse">
<stop stop-color="#5B2BE0"/>
<stop offset="1" stop-color="#6B80F7"/>
</linearGradient>
<linearGradient id="paint68_linear_3345_5281" x1="0" y1="88.6201" x2="169" y2="88.6201" gradientUnits="userSpaceOnUse">
<stop stop-color="#5B2BE0"/>
<stop offset="1" stop-color="#6B80F7"/>
</linearGradient>
<linearGradient id="paint69_linear_3345_5281" x1="0" y1="88.6201" x2="169" y2="88.6201" gradientUnits="userSpaceOnUse">
<stop stop-color="#5B2BE0"/>
<stop offset="1" stop-color="#6B80F7"/>
</linearGradient>
<linearGradient id="paint70_linear_3345_5281" x1="0" y1="88.6201" x2="169" y2="88.6201" gradientUnits="userSpaceOnUse">
<stop stop-color="#5B2BE0"/>
<stop offset="1" stop-color="#6B80F7"/>
</linearGradient>
<linearGradient id="paint71_linear_3345_5281" x1="0" y1="88.6201" x2="169" y2="88.6201" gradientUnits="userSpaceOnUse">
<stop stop-color="#5B2BE0"/>
<stop offset="1" stop-color="#6B80F7"/>
</linearGradient>
<linearGradient id="paint72_linear_3345_5281" x1="0" y1="88.6201" x2="169" y2="88.6201" gradientUnits="userSpaceOnUse">
<stop stop-color="#5B2BE0"/>
<stop offset="1" stop-color="#6B80F7"/>
</linearGradient>
</defs>
</svg>
