<svg width="28" height="28" viewBox="0 0 28 28" fill="none" xmlns="http://www.w3.org/2000/svg">
<path d="M12.5016 18.9967C11.6925 18.9967 11.6476 18.772 8.44108 15.5655C7.85297 14.9774 7.85297 14.0259 8.44108 13.4378C9.02919 12.8497 9.98065 12.8497 10.5688 13.4378L12.5016 15.3857L17.4312 10.4411C18.0194 9.85297 18.9708 9.85297 19.5589 10.4411C20.147 11.0292 20.147 11.9806 19.5589 12.5688L13.5655 18.5622C13.2827 18.8431 12.9006 18.9986 12.5016 18.9967Z" fill="url(#paint0_linear_1402_1795)"/>
<path d="M0 14C0 21.7325 6.2675 28 14 28C21.7325 28 28 21.7325 28 14C28 6.2675 21.7325 0 14 0C6.2675 0 0 6.2675 0 14ZM26 14C26 20.6275 20.6275 26 14 26C7.3725 26 2 20.6275 2 14C2 7.3725 7.3725 2 14 2C20.6275 2 26 7.3725 26 14Z" fill="url(#paint1_linear_1402_1795)"/>
<defs>
<linearGradient id="paint0_linear_1402_1795" x1="8" y1="14.4984" x2="20" y2="14.4984" gradientUnits="userSpaceOnUse">
<stop stop-color="#1F80FF"/>
<stop offset="0.465" stop-color="#9720FF"/>
<stop offset="1" stop-color="#FB20FF"/>
</linearGradient>
<linearGradient id="paint1_linear_1402_1795" x1="0" y1="14" x2="28" y2="14" gradientUnits="userSpaceOnUse">
<stop stop-color="#1F80FF"/>
<stop offset="0.465" stop-color="#9720FF"/>
<stop offset="1" stop-color="#FB20FF"/>
</linearGradient>
</defs>
</svg>
